<svg height="512pt" viewBox="-16 0 512 512" width="512pt" xmlns="http://www.w3.org/2000/svg"><path d="m474.097656 88.855469c-27.015625-4.976563-123.949218-26.042969-229.492187-87.726563-1.285157-.753906-2.730469-1.128906-4.175781-1.128906l-154.003907 244 154.003907 268c1.804687 0 3.613281-.566406 5.105468-1.699219 196.933594-149.1875 230.441406-368.675781 235.265625-412.429687.476563-4.324219-2.425781-8.230469-6.703125-9.015625zm0 0" fill="#eceaec"/><path d="m431.710938 104.898438c-42.597657-10.960938-108.3125-32.140626-179.386719-70.789063-.039063-.019531-.074219-.039063-.109375-.058594-6.980469-3.75-11.785156-10.539062-11.785156-18.464843v-15.585938c-1.445313 0-2.890626.375-4.179688 1.128906-105.585938 61.707032-202.558594 82.765625-229.527344 87.730469-4.253906.785156-7.144531 4.671875-6.6718748 8.972656 4.8085938 43.667969 38.2812498 263.238281 235.2695308 412.46875 1.492188 1.132813 3.300782 1.699219 5.109376 1.699219v-10.585938c0-12.640624 6.507812-23.882812 16.167968-32.035156.046875-.039062.09375-.078125.136719-.117187 132.492187-113.480469 177.871094-258.824219 193.125-335.355469 2.589844-12.988281-5.320313-25.707031-18.148437-29.007812zm0 0" fill="#dad8db"/><path d="m427.515625 120.988281c-42.785156-11.011719-110.222656-32.625-183.136719-72.269531-1.226562-.667969-2.589844-1-3.949218-1l-140.335938 86.613281c8.664062 224.667969 138.367188 324.308594 140.335938 324.308594 1.964843 0 3.925781-.667969 5.488281-2.007813 129.832031-111.203124 173.4375-254.75 187.632812-325.972656.863281-4.324218-1.765625-8.570312-6.035156-9.671875zm0 0" fill="#c3ddff"/><path d="m174.351562 339.535156c-6.804687 0-13.394531-2.828125-18.082031-7.761718-4.6875-4.929688-7.171875-11.65625-6.828125-18.453126l7.464844-146.035156c.679688-13.261718 11.628906-23.667968 24.910156-23.667968h33.667969c13.777344 0 24.945313-11.167969 24.945313-24.941407v-70.957031c-1.363282 0-2.726563.332031-3.953126 1-72.917968 39.648438-140.359374 61.261719-183.144531 72.269531-4.265625 1.101563-6.894531 5.339844-6.03125 9.660157 14.195313 71.21875 57.796875 214.777343 187.636719 325.984374 1.5625 1.339844 3.523438 2.007813 5.492188 2.007813v-94.164063c0-13.773437-11.167969-24.941406-24.945313-24.941406zm0 0" fill="#a4ccff"/><path d="m309.730469 214.828125-126.972657-14.496094-4.664062 113.667969 136.308594-7.71875zm0 0" fill="#ff8086"/><path d="m314.402344 306.28125h-122.988282c-4.757812 0-8.542968-3.988281-8.300781-8.738281l4.226563-82.714844-7.164063-7.578125-9.046875 7.578125-5.078125 99.34375c-.242187 4.75 3.546875 8.738281 8.304688 8.738281h132.148437c4.757813 0 8.546875-3.988281 8.304688-8.738281zm0 0" fill="#e5646e"/><path d="m190.128906 160.246094c-4.425781 0-8.074218 3.46875-8.300781 7.890625l5.511719 46.691406h122.386718l-2.382812-46.691406c-.226562-4.421875-3.878906-7.890625-8.304688-7.890625zm0 0" fill="#ff9a9f"/><path d="m173.511719 168.136719-2.386719 46.691406h16.214844l2.789062-54.582031h-8.3125c-4.425781 0-8.078125 3.46875-8.304687 7.890625zm0 0" fill="#ff8086"/><path d="m240.429688 106.746094c-18.34375 0-33.257813 14.921875-33.257813 33.257812v41.570313h16.628906v-41.570313c0-9.167968 7.460938-16.628906 16.628907-16.628906 9.164062 0 16.625 7.457031 16.625 16.628906v41.570313h16.628906v-41.570313c0-18.335937-14.914063-33.257812-33.253906-33.257812zm0 0" fill="#857e87"/><g fill="#fff"><path d="m223.800781 181.574219c0 4.589843-3.722656 8.3125-8.316406 8.3125-4.589844 0-8.3125-3.722657-8.3125-8.3125 0-4.59375 3.722656-8.316407 8.3125-8.316407 4.59375 0 8.316406 3.722657 8.316406 8.316407zm0 0"/><path d="m273.683594 181.574219c0 4.589843-3.722656 8.3125-8.3125 8.3125-4.59375 0-8.316406-3.722657-8.316406-8.3125 0-4.59375 3.722656-8.316407 8.316406-8.316407 4.589844 0 8.3125 3.722657 8.3125 8.316407zm0 0"/></g></svg>