<?xml version="1.0" standalone="no"?>
<!-- Generator: Adobe Fireworks 10, Export SVG Extension by Aaron Beall (http://fireworks.abeall.com) . Version: 0.6.1  -->
<!DOCTYPE svg PUBLIC "-//W3C//DTD SVG 1.1//EN" "http://www.w3.org/Graphics/SVG/1.1/DTD/svg11.dtd">
<svg id="Untitled-P%E1gina%201" viewBox="0 0 147 107" style="background-color:#ffffff00" version="1.1"
	xmlns="http://www.w3.org/2000/svg" xmlns:xlink="http://www.w3.org/1999/xlink" xml:space="preserve"
	x="0px" y="0px" width="147px" height="107px"
>
	<g id="Camada%201">
		<g id="team">
			<path d="M 102.1774 53.2665 L 102.1774 54.7168 C 102.1774 56.4939 102.4614 58.2592 103.0183 59.9449 L 106.2742 69.7997 L 112.4193 69.7997 L 112.4193 47.0663 L 108.3226 47.0663 C 104.9288 47.0666 102.1774 49.8422 102.1774 53.2665 L 102.1774 53.2665 Z" fill="#5a4146"/>
			<path d="M 130.2243 57.5597 L 126.7581 69.7999 L 110.3709 55.3334 C 108.1082 55.3334 106.2742 53.4827 106.2742 51.2001 L 106.2742 51.2001 C 106.2742 47.776 109.0255 45.0002 112.4193 45.0002 L 126.7579 45.0002 C 129.0206 45.0002 130.8546 46.8509 130.8546 49.1335 L 130.8546 53.018 C 130.8549 54.5538 130.6426 56.0824 130.2243 57.5597 L 130.2243 57.5597 Z" fill="#694b4b"/>
			<rect x="110.3697" y="76.0011" width="12.2902" height="9.1467" fill="#ffd7a3"/>
			<path d="M 110.3709 79.796 C 112.2707 80.5749 114.3424 81.0133 116.516 81.0133 C 118.6897 81.0133 120.7614 80.5749 122.6612 79.796 L 122.6612 75.9998 L 110.3709 75.9998 L 110.3709 79.796 L 110.3709 79.796 L 110.3709 79.796 Z" fill="#fdc88e"/>
			<path d="M 132.5429 83.862 L 122.6607 81.0135 L 116.516 85.1276 L 110.3709 81.0133 L 100.4892 83.862 C 97.851 84.6225 96.0323 87.0553 96.0323 89.8234 L 96.0323 104.9331 C 96.0323 106.0745 96.9494 106.9998 98.0807 106.9998 L 134.9516 106.9998 C 136.0829 106.9998 137 106.0745 137 104.9331 L 137 89.8234 C 137 87.0551 135.1811 84.6225 132.5429 83.862 L 132.5429 83.862 Z" fill="#c8daf5"/>
			<path d="M 118.5644 106.9995 L 114.4677 106.9995 L 115.4919 85.1466 L 117.5402 85.1466 L 118.5644 106.9995 Z" fill="#8bafeb"/>
			<path d="M 116.516 78.0665 L 116.516 78.0665 C 109.7282 78.0665 104.2258 72.5147 104.2258 65.6666 L 104.2258 63.2454 C 104.2258 62.1492 104.6574 61.0979 105.4256 60.3226 L 109.1401 56.5749 C 109.9267 55.7814 111.0022 55.3251 112.1139 55.3604 C 118.6619 55.5689 124.4578 56.9841 127.6261 60.1061 C 128.4017 60.8704 128.8065 61.9395 128.8065 63.0331 L 128.8065 65.6666 C 128.8065 72.515 123.3038 78.0665 116.516 78.0665 L 116.516 78.0665 Z" fill="#ffe1b2"/>
			<path d="M 110.3709 63.7579 C 110.3709 61.3739 112.3553 59.4789 114.7135 59.6306 C 118.8487 59.8969 124.9849 60.5941 128.7495 62.421 C 128.6267 61.5491 128.2553 60.726 127.6261 60.1058 C 124.4578 56.9838 118.6619 55.5686 112.1139 55.3602 L 112.1137 55.3604 L 112.1137 55.3602 C 111.0022 55.3249 109.9264 55.7814 109.1401 56.5747 L 105.4259 60.3221 C 104.6574 61.0971 104.2258 62.1485 104.2258 63.2449 L 104.2258 65.6661 C 104.2258 71.321 107.9815 76.0822 113.1109 77.5732 C 111.4036 75.448 110.3712 72.7502 110.3712 69.7994 L 110.3709 63.7579 L 110.3709 63.7579 L 110.3709 63.7579 Z" fill="#ffd7a3"/>
			<path d="M 128.8065 95.9816 C 128.8065 94.3371 129.4539 92.7602 130.6063 91.5975 L 135.8791 86.2777 C 136.5838 87.2941 137 88.5176 137 89.8237 L 137 104.9334 C 137 106.0748 136.0829 107 134.9516 107 L 128.8065 107 L 128.8065 95.9816 L 128.8065 95.9816 L 128.8065 95.9816 Z" fill="#bacbe4"/>
			<path d="M 117.5402 89.2799 L 115.4919 89.2799 C 114.9263 89.2799 114.4677 88.8171 114.4677 88.2465 L 114.4677 85.1466 L 118.5644 85.1466 L 118.5644 88.2465 C 118.5644 88.8171 118.106 89.2799 117.5402 89.2799 L 117.5402 89.2799 Z" fill="#81a3da"/>
			<g>
				<path d="M 116.516 85.1278 L 113.0441 87.8033 C 112.4461 88.2643 111.5814 88.0796 111.22 87.4134 L 108.1055 81.675 L 109.3591 79.7457 C 109.6372 79.3178 110.2298 79.245 110.6016 79.5928 L 116.516 85.1278 L 116.516 85.1278 Z" fill="#bacbe4"/>
				<path d="M 116.516 85.1278 L 119.988 87.8036 C 120.586 88.2645 121.4507 88.0799 121.8121 87.4137 L 124.9266 81.6752 L 123.6729 79.746 C 123.3949 79.318 122.8023 79.2452 122.4305 79.5931 L 116.516 85.1278 L 116.516 85.1278 Z" fill="#bacbe4"/>
			</g>
			<path d="M 46.6668 77.2036 C 44.9163 72.5242 43.528 64.4801 43.2281 60.292 C 42.6576 52.3223 36.7047 45.8255 28.6576 45.8255 C 20.6105 45.8255 14.6576 52.3225 14.0871 60.292 C 13.7872 64.4799 12.3989 72.5242 10.6484 77.2036 C 10.2627 78.2352 10.7079 79.3726 11.7147 79.8331 C 13.5905 80.6907 17.5897 82.3709 22.413 83.0254 L 34.9019 83.0254 C 39.7026 82.3694 43.7299 80.6882 45.6002 79.8331 C 46.6073 79.3726 47.0525 78.2352 46.6668 77.2036 L 46.6668 77.2036 Z" fill="#5a4146"/>
			<path d="M 45.6004 79.8333 C 46.607 79.3728 47.0525 78.2354 46.6665 77.2038 C 44.9163 72.5245 43.5277 64.4804 43.2281 60.2923 C 42.6579 52.3225 36.7047 45.8258 28.6578 45.8258 C 28.6375 45.8258 28.6174 45.8258 28.5971 45.826 C 22.4224 45.8513 20.2404 54.3474 25.5558 57.5174 C 25.875 57.7079 26.0796 57.7995 26.0796 57.7995 L 30.7352 83.0256 L 34.9022 83.0256 C 39.7029 82.3692 43.7302 80.6882 45.6004 79.8333 L 45.6004 79.8333 Z" fill="#694b4b"/>
			<path d="M 43.4739 87.1747 L 36.8451 83.831 C 35.4571 83.1307 34.5802 81.6993 34.5804 80.1336 L 34.5809 73.9334 L 22.2902 73.9334 L 22.2902 80.1339 C 22.2902 81.6995 21.4136 83.1305 20.0256 83.8307 L 13.3967 87.1747 C 11.3149 88.2248 10 90.3715 10 92.7197 L 10 104.9329 C 10 106.074 10.917 106.9995 12.0484 106.9995 L 44.8226 106.9995 C 45.9539 106.9995 46.8709 106.074 46.8709 104.9329 L 46.8709 92.7199 C 46.8709 90.3715 45.5558 88.2248 43.4739 87.1747 L 43.4739 87.1747 Z" fill="#ffd7a3"/>
			<path d="M 28.4356 82.1998 C 30.6412 82.1998 32.7538 81.741 34.6906 80.9245 C 34.6397 80.6639 34.5804 80.4049 34.5804 80.1334 L 34.5809 73.9332 L 22.2902 73.9332 L 22.2902 80.1336 C 22.2902 80.4067 22.2309 80.6669 22.1796 80.9285 C 24.1176 81.7408 26.2292 82.1998 28.4356 82.1998 L 28.4356 82.1998 Z" fill="#fdc88e"/>
			<path d="M 43.4739 87.1747 L 38.7516 84.7924 C 36.5618 88.204 32.764 90.4666 28.4356 90.4666 C 24.1072 90.4666 20.3091 88.204 18.1193 84.7922 L 13.397 87.1747 C 11.3151 88.2248 10 90.3715 10 92.7197 L 10 104.9329 C 10 106.0743 10.917 106.9995 12.0484 106.9995 L 44.8226 106.9995 C 45.9539 106.9995 46.8709 106.0743 46.8709 104.9329 L 46.8709 92.7199 C 46.8709 90.3715 45.5558 88.2248 43.4739 87.1747 L 43.4739 87.1747 Z" fill="#c8daf5"/>
			<path d="M 28.4356 78.0665 L 28.4356 78.0665 C 22.1868 78.0665 17.0274 73.3616 16.2473 67.2715 C 16.1342 66.3891 16.5546 65.524 17.3419 65.1233 C 18.285 64.6433 19.6555 63.834 20.9676 62.6527 C 22.4289 61.3374 23.2861 59.9502 23.7703 58.9319 C 24.1873 58.055 25.1457 57.559 26.0799 57.7995 C 33.2921 59.6554 38.2022 63.4411 39.9837 64.9866 C 40.4619 65.4016 40.7375 66.0135 40.6883 66.6481 C 40.192 73.0373 34.896 78.0665 28.4356 78.0665 L 28.4356 78.0665 Z" fill="#ffe1b2"/>
			<path d="M 39.9834 64.9864 C 38.2022 63.4408 33.2919 59.6551 26.0796 57.7992 C 25.1455 57.5587 24.1871 58.0547 23.7701 58.9316 C 23.4035 59.7029 22.7975 60.6854 21.8983 61.6885 C 21.8981 61.691 21.8973 61.693 21.8971 61.6955 C 21.618 62.0146 21.3209 62.3344 20.9676 62.6527 C 19.6555 63.8342 18.285 64.6433 17.3419 65.1233 C 16.5546 65.524 16.1344 66.3893 16.2473 67.2718 C 16.948 72.7412 21.1901 77.0947 26.5723 77.9251 C 24.1198 76.2418 22.2905 73.9269 22.2905 69.8001 L 22.2905 66.8531 C 22.7558 66.5065 23.2244 66.1609 23.6952 65.7369 C 24.8337 64.7119 25.8276 63.5264 26.6246 62.2501 C 32.1419 63.9871 35.8824 66.8804 37.3005 68.1107 C 37.6887 68.454 38.6521 69.3499 39.7793 70.4168 C 40.2642 69.2393 40.5849 67.976 40.6879 66.6484 C 40.7372 66.0135 40.4616 65.4016 39.9834 64.9864 L 39.9834 64.9864 Z" fill="#ffd7a3"/>
			<path d="M 11.2487 88.9943 C 10.4596 90.0509 10 91.347 10 92.7197 L 10 104.9329 C 10 106.0743 10.917 106.9995 12.0484 106.9995 L 18.1935 106.9995 L 18.1935 96.5862 C 18.1935 95.3306 17.6277 94.1429 16.6558 93.3586 L 11.2487 88.9943 L 11.2487 88.9943 Z" fill="#bacbe4"/>
			<path d="M 102.929 84.3543 L 85.7902 78.0662 L 73.5 82.1998 L 61.2098 78.0665 L 44.071 84.3545 C 40.833 85.5425 38.6774 88.6472 38.6774 92.1233 L 38.6774 104.9331 C 38.6774 106.0743 39.5945 106.9998 40.7258 106.9998 L 106.2742 106.9998 C 107.4055 106.9998 108.3226 106.0743 108.3226 104.9331 L 108.3226 92.1233 C 108.3226 88.647 106.1673 85.5423 102.929 84.3543 L 102.929 84.3543 Z" fill="#59c19c"/>
			<path d="M 71.3541 86.3333 L 69.4033 106.9995 L 77.5967 106.9995 L 75.6459 86.3333 L 71.3541 86.3333 Z" fill="#707487"/>
			<path d="M 75.6506 89.1725 L 71.3494 89.1725 C 70.5574 89.1725 69.9155 88.5248 69.9155 87.7258 L 69.9155 82.1998 L 77.0843 82.1998 L 77.0843 87.7258 C 77.0845 88.5246 76.4426 89.1725 75.6506 89.1725 L 75.6506 89.1725 Z" fill="#5b5d6e"/>
			<path d="M 106.1177 86.4907 C 107.5008 87.9885 108.3226 89.9833 108.3226 92.1231 L 108.3226 104.9329 C 108.3226 106.0743 107.4055 106.9995 106.2742 106.9995 L 96.0323 106.9995 L 96.0323 100.0903 C 96.0323 97.8978 96.8955 95.7951 98.4322 94.245 L 106.1177 86.4907 L 106.1177 86.4907 Z" fill="#47b68c"/>
			<path d="M 96.0323 35.4463 L 96.0323 18.1333 C 96.0323 15.8504 94.198 14 91.9356 14 L 67.3549 14 C 58.3046 14 50.9677 21.4022 50.9677 30.5334 L 50.9677 35.4463 C 50.9677 37.6676 51.3226 39.8743 52.0189 41.9815 L 52.7008 44.0454 C 52.9096 44.6776 53.016 45.3395 53.016 46.006 L 53.016 47.0666 L 93.9837 47.0666 L 93.9837 46.006 C 93.9837 45.3395 94.0901 44.6776 94.299 44.0454 L 94.9809 41.9815 C 95.6774 39.8741 96.0323 37.6673 96.0323 35.4463 L 96.0323 35.4463 Z" fill="#5a4146"/>
			<path d="M 61.2098 22.3957 C 61.2098 27.0325 64.9354 30.7914 69.5313 30.7914 L 70.6834 30.7914 L 71.2396 47.0663 L 93.9837 47.0663 L 93.9837 46.0057 C 93.9837 45.3393 94.0901 44.6773 94.299 44.0452 L 94.9809 41.9813 C 95.6771 39.8741 96.0321 37.6673 96.0321 35.446 L 96.0321 18.1333 C 96.0321 15.8504 94.1978 14 91.9354 14 L 69.5313 14 C 64.9354 14 61.2098 17.7589 61.2098 22.3957 L 61.2098 22.3957 Z" fill="#694b4b"/>
			<rect x="61.2093" y="63.6007" width="24.5814" height="18.5993" fill="#ffd7a3"/>
			<path d="M 61.2098 70.588 C 64.8283 72.7029 69.0175 73.933 73.5 73.933 C 77.9825 73.933 82.172 72.7029 85.7902 70.588 L 85.7902 63.5997 L 61.2095 63.5997 L 61.2098 70.588 L 61.2098 70.588 L 61.2098 70.588 Z" fill="#fdc88e"/>
			<g>
				<path d="M 73.5 82.1998 L 66.9669 88.7911 C 66.0889 89.677 64.6375 89.5772 63.8869 88.5791 L 57.113 79.5738 L 58.8848 75.8066 C 59.4077 74.695 60.7715 74.2876 61.8098 74.9332 L 73.5 82.1998 L 73.5 82.1998 Z" fill="#47b68c"/>
				<path d="M 73.5 82.1998 L 80.0331 88.7911 C 80.9111 89.677 82.3625 89.5772 83.1131 88.5791 L 89.887 79.5738 L 88.1152 75.8066 C 87.5923 74.695 86.2285 74.2876 85.1902 74.9332 L 73.5 82.1998 L 73.5 82.1998 Z" fill="#47b68c"/>
			</g>
			<path d="M 73.5 69.7999 L 73.5 69.7999 C 62.1871 69.7999 53.016 60.5471 53.016 49.1332 L 53.016 46.7119 C 53.016 45.6158 53.4476 44.5645 54.2158 43.7892 L 55.9127 42.0771 C 56.6809 41.3021 57.1125 40.2508 57.1125 39.1544 L 57.1125 34.2002 C 57.1125 33.2432 57.7495 32.4119 58.6725 32.1919 C 63.5171 31.0374 78.5927 28.3028 88.8521 35.9157 C 89.5184 36.41 89.8867 37.2221 89.8867 38.0565 L 89.8867 39.1544 C 89.8867 40.2505 90.3183 41.3018 91.0865 42.0771 L 92.7834 43.7892 C 93.5516 44.5642 93.9832 45.6156 93.9832 46.7119 L 93.9832 49.1332 C 93.984 60.5471 84.8129 69.7999 73.5 69.7999 L 73.5 69.7999 Z" fill="#ffe1b2"/>
			<path d="M 88.8524 35.916 C 81.6367 30.5617 72.0519 30.3299 65.3065 31.063 C 62.4612 31.372 60.1102 31.8498 58.673 32.1921 C 57.75 32.4121 57.113 33.2435 57.113 34.2005 L 57.113 39.1544 C 57.113 40.2508 56.6814 41.3021 55.913 42.0774 L 54.2161 43.7894 C 53.4476 44.5647 53.016 45.6161 53.016 46.7125 L 53.016 49.1335 C 53.016 59.7004 60.8816 68.3997 71.0247 69.6347 C 67.4903 65.9211 65.3063 60.8886 65.3063 55.3334 L 65.3063 40.2275 C 65.3063 38.133 66.8499 36.3827 68.9094 36.1222 C 73.8252 35.5003 82.8288 35.1264 89.8867 39.1549 L 89.8867 38.0567 C 89.8872 37.2223 89.5181 36.41 88.8524 35.916 L 88.8524 35.916 Z" fill="#ffd7a3"/>
			<path d="M 40.8823 86.4907 C 39.4992 87.9885 38.6774 89.9833 38.6774 92.1231 L 38.6774 104.9329 C 38.6774 106.0743 39.5945 106.9995 40.7258 106.9995 L 50.9677 106.9995 L 50.9677 100.0903 C 50.9677 97.8978 50.1045 95.7951 48.5678 94.245 L 40.8823 86.4907 L 40.8823 86.4907 Z" fill="#47b68c"/>
		</g>
	</g>
</svg>