<?xml version="1.0" standalone="no"?>
<!-- Generator: Adobe Fireworks 10, Export SVG Extension by Aaron Beall (http://fireworks.abeall.com) . Version: 0.6.1  -->
<!DOCTYPE svg PUBLIC "-//W3C//DTD SVG 1.1//EN" "http://www.w3.org/Graphics/SVG/1.1/DTD/svg11.dtd">
<svg id="Untitled-P%E1gina%201" viewBox="0 0 83 84" style="background-color:#ffffff00" version="1.1"
	xmlns="http://www.w3.org/2000/svg" xmlns:xlink="http://www.w3.org/1999/xlink" xml:space="preserve"
	x="0px" y="0px" width="83px" height="84px"
>
	<g id="Camada%201">
		<g>
			<path d="M 82.9637 47.9714 L 81.755 40.174 L 80.8889 34.6958 L 80.0407 29.2175 L 79.1745 23.7393 L 77.5507 13.2759 C 77.3523 11.9429 76.2154 10.9568 74.8803 10.9568 L 64.0542 10.9568 C 62.7189 10.9568 61.5821 11.9427 61.3837 13.2759 L 59.7599 23.7393 L 58.8937 29.2175 L 58.0456 34.6958 L 57.1794 40.174 L 55.9708 47.9714 C 55.8443 48.7568 56.061 49.5604 56.5842 50.1628 C 57.0894 50.7836 57.8473 51.1306 58.6412 51.1306 L 80.2933 51.1306 C 81.0869 51.1306 81.845 50.7836 82.3503 50.1628 C 82.8734 49.56 83.0902 48.7566 82.9637 47.9714 L 82.9637 47.9714 Z" fill="#bacbe4"/>
			<g>
				<path d="M 80.0407 29.2174 L 58.8937 29.2174 L 59.7599 23.7392 L 79.1745 23.7392 L 80.0407 29.2174 Z" fill="#8fc954"/>
				<path d="M 81.755 40.174 L 57.1794 40.174 L 58.0456 34.6956 L 80.8889 34.6956 L 81.755 40.174 Z" fill="#8fc954"/>
			</g>
			<path d="M 48.7173 45.6522 L 48.7173 31.9566 C 48.7173 29.7106 46.1733 28.4139 44.3869 29.7652 L 41.4999 31.9566 L 27.0652 42.9132 L 27.0652 31.9566 C 27.0652 29.6922 24.5032 28.4139 22.7348 29.7652 L 1.0826 46.2 C 0.397 46.7114 0 47.533 0 48.3914 L 0 81.261 C 0 82.7766 1.2087 84 2.7066 84 L 80.2934 84 C 81.7912 84 83 82.7766 83 81.2608 L 83 45.6522 L 48.7173 45.6522 L 48.7173 45.6522 Z" fill="#c8daf5"/>
			<path d="M 46.9129 73.0434 L 36.0868 73.0434 C 34.5926 73.0434 33.3802 71.8174 33.3802 70.3042 L 33.3802 59.3476 C 33.3802 57.8345 34.5926 56.6085 36.0868 56.6085 L 46.9129 56.6085 C 48.4071 56.6085 49.6195 57.8345 49.6195 59.3476 L 49.6195 70.3042 C 49.6195 71.8174 48.4071 73.0434 46.9129 73.0434 L 46.9129 73.0434 Z" fill="#8bafeb"/>
			<path d="M 25.2608 73.0434 L 14.4347 73.0434 C 12.9405 73.0434 11.7281 71.8174 11.7281 70.3042 L 11.7281 59.3476 C 11.7281 57.8345 12.9405 56.6085 14.4347 56.6085 L 25.2608 56.6085 C 26.755 56.6085 27.9674 57.8345 27.9674 59.3476 L 27.9674 70.3042 C 27.9674 71.8174 26.755 73.0434 25.2608 73.0434 L 25.2608 73.0434 Z" fill="#8bafeb"/>
			<path d="M 68.5652 73.0434 L 57.739 73.0434 C 56.2449 73.0434 55.0325 71.8174 55.0325 70.3042 L 55.0325 59.3476 C 55.0325 57.8345 56.2449 56.6085 57.739 56.6085 L 68.5652 56.6085 C 70.0593 56.6085 71.2717 57.8345 71.2717 59.3476 L 71.2717 70.3042 C 71.2716 71.8174 70.0593 73.0434 68.5652 73.0434 L 68.5652 73.0434 Z" fill="#8bafeb"/>
			<path opacity="0.0706" d="M 82.9999 45.6522 L 82.9999 81.2608 C 82.9999 82.7764 81.7912 84 80.2933 84 L 41.4999 84 L 41.4999 31.9566 L 44.3869 29.7652 C 46.1733 28.4138 48.7173 29.7104 48.7173 31.9566 L 48.7173 45.6522 L 82.9999 45.6522 L 82.9999 45.6522 Z" fill="#000000"/>
			<path d="M 69.4673 0 L 47.8152 0 C 45.2531 0 42.9797 1.187 41.4999 3.0678 C 40.9223 3.78 40.4713 4.5834 40.1646 5.4782 L 26.163 5.4782 C 21.6882 5.4782 18.0434 9.1668 18.0434 13.6956 C 18.0434 18.2244 21.6881 21.913 26.163 21.913 L 47.8151 21.913 C 51.3516 21.913 54.3467 19.6304 55.4654 16.4348 L 74.8801 16.4348 C 76.3779 16.4348 77.5867 15.2114 77.5867 13.6956 L 77.5867 8.2174 C 77.5869 3.6886 73.942 0 69.4673 0 L 69.4673 0 Z" fill="#fce4bb"/>
			<path d="M 77.5869 8.2174 L 77.5869 13.6956 C 77.5869 15.2112 76.3781 16.4348 74.8803 16.4348 L 55.4656 16.4348 C 54.3469 19.6304 51.3518 21.913 47.8152 21.913 L 41.4999 21.913 L 41.4999 3.0678 C 42.9797 1.187 45.2531 0 47.8152 0 L 69.4673 0 C 73.942 0 77.5869 3.6886 77.5869 8.2174 L 77.5869 8.2174 Z" fill="#fad591"/>
		</g>
	</g>
</svg>