<svg width="536" height="536" viewBox="0 0 536 536" fill="none" xmlns="http://www.w3.org/2000/svg">
<rect width="536" height="536" rx="132" fill="#26D07C"/>
<path fill-rule="evenodd" clip-rule="evenodd" d="M330.348 123.381C367.27 129.4 392.853 148.864 400.378 177.057C402.886 185.986 403.288 199.53 401.482 207.958C396.566 231.034 382.52 245.08 349.812 259.427L346.401 260.932L356.835 266.149C374.493 275.078 385.73 285.914 390.947 299.258C394.057 307.184 394.76 324.139 392.352 335.778C385.128 371.495 356.133 398.182 312.389 409.319C292.223 414.335 283.194 414.837 205.037 414.837C165.407 414.837 133.001 414.536 133.001 414.034C132.9 413.633 143.636 351.63 156.779 276.082L180.657 138.831L184.67 137.828C205.739 132.009 240.453 125.889 265.937 123.481C285.702 121.575 318.81 121.474 330.348 123.381ZM219.786 290.629C219.706 291.147 219.183 294.038 218.375 298.511L218.374 298.514C217.147 305.304 215.26 315.739 213.264 327.049C209.953 345.81 206.943 362.365 206.643 363.87L206.041 366.679H244.567C287.608 366.679 292.023 366.177 304.263 360.158C320.115 352.332 328.342 337.383 327.439 318.019C326.937 306.883 324.329 300.662 317.807 295.746C309.38 289.325 307.473 289.124 261.723 288.623L220.388 288.322L219.786 290.629ZM240.253 172.843C240.755 172.341 264.359 167.626 273.462 167.626C278.166 167.626 280.84 167.599 283.424 167.573C285.84 167.549 288.177 167.525 292.023 167.525C299.981 167.525 317.306 169.733 324.931 175.552C334.061 182.575 338.576 197.323 335.265 209.965C333.358 217.59 330.349 222.305 324.028 228.225C317.707 234.044 313.694 236.552 305.567 239.361C299.347 241.568 297.441 241.669 263.529 242.07L228.013 242.471L228.615 240.063C228.916 238.859 231.524 223.308 234.434 205.651C237.243 187.993 239.952 173.244 240.253 172.843Z" fill="white"/>
</svg>
