<svg xmlns="http://www.w3.org/2000/svg" viewBox="0 0 123 146"><g data-name="Camada 2"><g data-name="Camada 1"><circle cx="61" cy="36" r="34" stroke-width="4" stroke="#7faadc" stroke-linecap="round" stroke-linejoin="round" fill="#fff"/><path d="M120 103a22 22 0 0 0-5-8c-3-3-18-15-53-15h-1C26 80 10 92 8 95a22 22 0 0 0-5 8 18 18 0 0 0-1 5v36h119v-36a19 19 0 0 0-1-5z" stroke-width="3" stroke="#a7c4e7" stroke-miterlimit="10" fill="#fff"/><path d="M120 103a31 31 0 0 0-5-8c-3-4-10-10-29-13-14-2-30-5-50 0A98 98 0 0 0 8 95c4-2 58-22 94 7a71 71 0 0 1 19 22l-1-21z" fill="#ecf7fb"/><path d="M120 103a22 22 0 0 0-5-8c-3-3-18-15-53-15h-1C26 80 10 92 8 95a22 22 0 0 0-5 8 18 18 0 0 0-1 5v36h119v-36a19 19 0 0 0-1-5z" fill="none" stroke="#a7c4e7" stroke-miterlimit="10" stroke-width="4"/></g></g></svg>