<svg xmlns="http://www.w3.org/2000/svg" viewBox="0 0 249 276"><defs><style>.cls-4{fill:#ecf7fb;stroke-linecap:round;stroke-linejoin:round;stroke:#7faadc;stroke-width:3px}</style></defs><g id="Camada_2" data-name="Camada 2"><g id="Camada_1-2" data-name="Camada 1"><g id="Camada_2-2" data-name="Camada 2"><g id="Camada_1-2-2" data-name="Camada 1-2"><path d="M208 26a30 30 0 0 0-16 4 23 23 0 0 0-35-15 23 23 0 0 0-41 1 23 23 0 1 0-2 37 23 23 0 0 0 45 1 23 23 0 0 0 18 1v2a31 31 0 1 0 31-31z" stroke-width="4" stroke-linecap="round" stroke-linejoin="round" stroke="#a7c4e7" fill="#ecf7fb"/><path d="M234 75h-51l-13 85h-25v-39a6 6 0 0 0-9-4l-55 43h-3v-42a6 6 0 0 0-9-4L9 161l-4 4a10 10 0 0 0-2 2 10 10 0 0 0-1 5v90a12 12 0 0 0 12 12h221a12 12 0 0 0 12-12v-90l-13-97z" stroke="#7faadc" fill="#fff" stroke-width="4" stroke-linecap="round" stroke-linejoin="round"/><path stroke="#7faadc" stroke-width="4" stroke-linecap="round" stroke-linejoin="round" fill="#ecf7fb" d="M237 101l-4-26h-51l-4 26h59z"/><rect class="cls-4" x="43" y="199" width="35" height="35" rx="4" ry="4"/><rect class="cls-4" x="107" y="199" width="35" height="35" rx="4" ry="4"/><rect class="cls-4" x="171" y="199" width="35" height="35" rx="4" ry="4"/></g></g></g></g></svg>