<svg xmlns="http://www.w3.org/2000/svg" width="283" height="283" viewBox="0 0 283 283"><g transform="translate(-549 -546)"><path d="M0,0H283V283H0Z" transform="translate(549 546)" fill="none"/><g transform="translate(-110 -211)"><path d="M8468.132,4368.552l-56.873-56.872a4.59,4.59,0,0,0-6.49,0l-56.871,56.872a4.589,4.589,0,0,0,3.244,7.835h33.347a4.59,4.59,0,0,1,4.59,4.59v104.685a4.59,4.59,0,0,0,4.589,4.59h28.694a4.589,4.589,0,0,0,4.589-4.59V4380.977a4.59,4.59,0,0,1,4.59-4.59h33.346A4.59,4.59,0,0,0,8468.132,4368.552Z" transform="translate(5243.309 -7481.721) rotate(90)" fill="#cfdff2" stroke="#7faadc" stroke-linecap="round" stroke-linejoin="round" stroke-width="4"/><path d="M8468.132,4368.552l-56.873-56.872a4.59,4.59,0,0,0-6.49,0l-56.871,56.872a4.589,4.589,0,0,0,3.244,7.835h33.347a4.59,4.59,0,0,1,4.59,4.59v94.685a4.59,4.59,0,0,0,4.589,4.59h28.694a4.589,4.589,0,0,0,4.589-4.59v-94.685a4.59,4.59,0,0,1,4.59-4.59h33.346A4.59,4.59,0,0,0,8468.132,4368.552Z" transform="translate(-3642.279 9278.311) rotate(-90)" fill="#ecf7fb" stroke="#7faadc" stroke-linecap="round" stroke-linejoin="round" stroke-width="4"/></g></g></svg>