<svg xmlns="http://www.w3.org/2000/svg" width="280.6" height="215.5"><g data-name="Agrupar 4" transform="translate(-500 -295.8)"><ellipse data-name="Elipse 1" cx="140.3" cy="56.3" rx="140.3" ry="56.3" transform="translate(500 398.7)" fill="#f4f6f9"/><g data-name="Agrupar 3" stroke-linecap="round" stroke-linejoin="round"><path data-name="Caminho 3" d="M640.6 302.1l-78 54.6v101a9.9 9.9 0 0 0 10 9.7h136a9.9 9.9 0 0 0 10-9.8v-101z" fill="#fff" stroke="#8ba7d8" stroke-width="3"/><path data-name="Caminho 4" d="M623.3 402.4h34.6a5.1 5.1 0 0 1 5.1 5.1v60.1h-44.8v-60a5.1 5.1 0 0 1 5.1-5.2z" fill="#eef6fa" stroke="#adc2e4" stroke-width="2"/><path data-name="Caminho 5" d="M640.6 302.1l-78 54.6v101a9.9 9.9 0 0 0 10 9.7h136a9.9 9.9 0 0 0 10-9.8v-101z" fill="none" stroke="#8ba7d8" stroke-width="3"/><path data-name="Caminho 6" d="M736.6 363.4l-39-27.3v-20.6a2.2 2.2 0 0 0-2.2-2h-10.8a2.2 2.2 0 0 0-2.2 2.1v9.8L643 298a3.6 3.6 0 0 0-2.4-.6 3.7 3.7 0 0 0-2.3.6l-93.8 65.5a3.7 3.7 0 0 0-.9 5l5.8 8.3a3.7 3.7 0 0 0 5 1l86.1-60.4 86 60.3a3.6 3.6 0 0 0 5.2-1l5.7-8a3.6 3.6 0 0 0-.9-5.2z" fill="#ecf4f8" stroke="#8aa5d6" stroke-width="3"/></g></g></svg>