<svg xmlns="http://www.w3.org/2000/svg" width="283" height="283" viewBox="0 0 283 283"><g transform="translate(-135 -479)"><rect width="283" height="283" transform="translate(135 479)" fill="none"/><g transform="translate(-7951.864 378.693)"><path d="M8200.155,338.658c0-4.4-2.663-8.273-6.722-10.593h34.534V292.612c-2.237,4.567-6.352,7.64-11.069,7.64-7.1,0-12.863-6.944-12.863-15.511s5.759-15.511,12.863-15.511c4.718,0,8.832,3.073,11.069,7.641V241.417h-34.551c4.068,2.319,6.738,6.2,6.738,10.6,0,7.1-6.944,12.863-15.511,12.863s-15.511-5.759-15.511-12.863c0-4.4,2.67-8.285,6.738-10.6H8141.32v86.648h34.534c-4.058,2.32-6.721,6.2-6.721,10.593,0,7.1,6.944,12.863,15.511,12.863S8200.155,345.763,8200.155,338.658Z" fill="#ecf7fb" stroke="#7faadc" stroke-miterlimit="10" stroke-width="3"/><path d="M8200.18,252.03c0-4.4-2.667-8.272-6.726-10.59l34.534-.016-.017-34.534c2.322,4.057,6.2,6.718,10.6,6.716,7.1,0,12.859-6.95,12.855-15.517s-5.766-15.508-12.87-15.505c-4.4,0-8.271,2.667-10.59,6.726l-.016-34.534-86.648.04.016,34.534c-2.322-4.057-6.2-6.718-10.6-6.716-7.1,0-12.859,6.95-12.855,15.517s5.766,15.508,12.87,15.505c4.4,0,8.272-2.667,10.59-6.726l.016,34.534,34.534-.016c-4.057,2.322-6.718,6.2-6.716,10.6,0,7.1,6.95,12.859,15.517,12.855S8200.183,259.134,8200.18,252.03Z" fill="#fff" stroke="#7faadc" stroke-miterlimit="10" stroke-width="3"/><path d="M8303.227,213.615c-7.1,0-12.862-6.945-12.862-15.512s5.759-15.511,12.862-15.511c4.395,0,8.269,2.66,10.59,6.714V154.779h-34.8c4.072-2.318,6.747-6.2,6.747-10.609,0-7.1-6.944-12.863-15.512-12.863s-15.511,5.759-15.511,12.863c0,4.406,2.675,8.291,6.747,10.609h-34.32v35.454c2.239-4.568,6.352-7.641,11.07-7.641,7.1,0,12.862,6.945,12.862,15.511s-5.759,15.512-12.862,15.512c-4.719,0-8.831-3.074-11.07-7.641v35.454h86.649V206.9C8311.5,210.954,8307.621,213.615,8303.227,213.615Z" fill="#cfdff2" stroke="#7faadc" stroke-miterlimit="10" stroke-width="3"/><path d="M8286,316.995c0,4.719-3.073,8.832-7.641,11.07h35.454V293.531c2.319,4.058,6.2,6.721,10.593,6.721,7.1,0,12.863-6.944,12.863-15.511s-5.76-15.511-12.863-15.511c-4.4,0-8.273,2.663-10.593,6.721V241.417h-34.511c4.044-2.322,6.7-6.191,6.7-10.578,0-7.1-6.945-12.863-15.511-12.863s-15.512,5.759-15.512,12.863c0,4.387,2.653,8.256,6.7,10.578h-34.51v35.944c-2.176-4.842-6.427-8.131-11.315-8.131-7.1,0-12.862,6.945-12.862,15.511s5.759,15.511,12.862,15.511c4.889,0,9.14-3.288,11.315-8.131v35.944h35.454c-4.568-2.238-7.641-6.351-7.641-11.07,0-7.1,6.944-12.863,15.512-12.863S8286,309.891,8286,316.995Z" fill="#fff" stroke="#7faadc" stroke-miterlimit="10" stroke-width="3"/></g></g></svg>