<svg xmlns="http://www.w3.org/2000/svg" width="283" height="283" viewBox="0 0 283 283"><g transform="translate(-1042 -562)"><path d="M0,0H283V283H0Z" transform="translate(1042 562)" fill="none"/><g transform="translate(-5739 -2136)"><g transform="translate(6829.055 2717.813)" fill="#ecf7fb" stroke="#7faadc" stroke-miterlimit="10" stroke-width="2"><rect width="164.992" height="226.532" rx="16" stroke="none"/><rect x="1" y="1" width="162.992" height="224.532" rx="15" fill="none"/></g><rect width="164.992" height="226.532" rx="16" transform="translate(6837.399 2726.157)" stroke-width="3" stroke="#7faadc" stroke-linecap="round" stroke-linejoin="round" fill="#fff"/><path d="M6996.776,2958.845a60.174,60.174,0,0,1,5.165-4.47l38.333,38.333a8.834,8.834,0,0,1,0,12.5h0a8.835,8.835,0,0,1-12.494,0l-38.555-38.555C6991.789,2964.1,6994.291,2961.522,6996.776,2958.845Z" transform="translate(-26.523 -39.173)" fill="#fff" stroke="#fff" stroke-linecap="round" stroke-linejoin="round" stroke-width="15"/><path d="M6996.776,2958.845a60.174,60.174,0,0,1,5.165-4.47l38.333,38.333a8.834,8.834,0,0,1,0,12.5h0a8.835,8.835,0,0,1-12.494,0l-38.555-38.555C6991.789,2964.1,6994.291,2961.522,6996.776,2958.845Z" transform="translate(-26.523 -39.173)" fill="#fff" stroke="#a7c4e7" stroke-linecap="round" stroke-linejoin="round" stroke-width="2"/><path d="M7005.961,2968.3a54.515,54.515,0,0,1,4.678-4.048l8.02,8.02a36.512,36.512,0,0,1-11.315,11.315l-8.22-8.219C7001.445,2973.054,7003.712,2970.724,7005.961,2968.3Z" transform="translate(-28.162 -40.808)" fill="#cfdff2" stroke="rgba(0,0,0,0)" stroke-width="1"/><circle cx="48.366" cy="48.366" r="48.366" transform="translate(6896.098 2846.306)" fill="#fff" stroke="#a7c4e7" stroke-linecap="round" stroke-linejoin="round" stroke-width="5"/><line x2="29.22" transform="translate(6868.869 2772.236)" stroke-width="6" stroke="#a7c4e7" stroke-linecap="round" stroke-linejoin="round" fill="none"/><line x2="102.053" transform="translate(6868.869 2789.037)" stroke-width="6" stroke="#e1e3e6" stroke-linecap="round" stroke-linejoin="round" fill="none"/><line x2="102.053" transform="translate(6868.869 2805.838)" stroke-width="6" stroke="#e1e3e6" stroke-linecap="round" stroke-linejoin="round" fill="none"/><line x2="102.053" transform="translate(6868.869 2822.639)" stroke-width="6" stroke="#e1e3e6" stroke-linecap="round" stroke-linejoin="round" fill="none"/></g></g></svg>