<svg xmlns="http://www.w3.org/2000/svg" width="348.3" height="226.3"><g data-name="Grupo 213" transform="translate(-102.7 -2047.8)"><rect data-name="Ret창ngulo 1068" width="345.3" height="223" rx="14" transform="translate(104.2 2049.6)" stroke-width="3" stroke="#7faadc" stroke-linecap="round" stroke-linejoin="round" fill="#fff"/><path data-name="Caminho 182" d="M449.5 2098.6v-35.3a14 14 0 0 0-14-14H118.2a14 14 0 0 0-14 14v35.3z" fill="#eef6fa" stroke="#7faadc" stroke-linecap="round" stroke-linejoin="round" stroke-width="3"/><circle data-name="Elipse 40" cx="6.7" cy="6.7" r="6.7" transform="translate(369.3 2067.3)" fill="#8ba7d8"/><circle data-name="Elipse 41" cx="6.7" cy="6.7" r="6.7" transform="translate(394 2067.3)" fill="#8ba7d8"/><circle data-name="Elipse 42" cx="6.7" cy="6.7" r="6.7" transform="translate(418.6 2067.3)" fill="#8ba7d8"/><g data-name="Grupo 211"><rect data-name="Ret창ngulo 1069" width="87.7" height="34.7" rx="2" fill="none" stroke="#e1e3e6" stroke-linecap="round" stroke-linejoin="round" stroke-width="2" transform="translate(119.3 2156.4)"/></g><g data-name="Grupo 63"><rect data-name="Ret창ngulo 1069" width="87.7" height="34.7" rx="2" fill="none" stroke="#e1e3e6" stroke-linecap="round" stroke-linejoin="round" stroke-width="2" transform="translate(119.3 2114.4)"/></g><g data-name="Caminho 183" fill="#8ba7d8" stroke-miterlimit="10"><path d="M191 2162.7c-.8 0-1.4-.5-1.6-1.2l-3.8-14.1c-.1-.5 0-1 .3-1.4a1.6 1.6 0 0 1 1.6-.5l14.1 3.8a1.6 1.6 0 0 1 .7 2.6l-10.3 10.3c-.3.3-.7.5-1 .5z"/><path d="M187.1 2146.4c-.3 0-.6.4-.5.7l3.8 14.1a.6.6 0 0 0 .9.3l10.3-10.3c.3-.3.2-.9-.2-1l-14.1-3.8h-.2m0-2l.7.1 14.1 3.8a2.6 2.6 0 0 1 1.1 4.3l-10.3 10.3c-.5.5-1.1.8-1.8.8-1.2 0-2.2-.8-2.5-2l-3.8-14c-.2-.8 0-1.6.5-2.3.5-.6 1.2-1 2-1z" fill="#fff"/></g><path data-name="Linha 135" fill="none" stroke="#7faadc" stroke-linecap="round" stroke-linejoin="round" stroke-width="3" d="M194.7 2154.6l10.8 10.8"/><path data-name="Caminho 192" d="M160.1 2074l.3.1.6.4a2 2 0 0 1 1 2 3.3 3.3 0 0 1-1.5 2.5 5.2 5.2 0 0 1-2.4 1 11 11 0 0 1-1.2 0h-5.1l.2-1.3 1.1-6.7.5-2.5a.3.3 0 0 1 .3-.3 18.9 18.9 0 0 1 2.7-.5l1.5-.1a5.2 5.2 0 0 1 2.9.5 2.6 2.6 0 0 1 1.2 3 2.2 2.2 0 0 1-1 1.3 9.9 9.9 0 0 1-.9.5zm-5.5 4.2h2.9a2.6 2.6 0 0 0 .7-.2 1.8 1.8 0 0 0 1.2-2 1 1 0 0 0-.8-1 3 3 0 0 0-.7 0h-2.8zm1.3-7.7l-.4 2.7.1.1h2.3a1.9 1.9 0 0 0 1.4-.6 1.4 1.4 0 0 0 .3-1.4 1.2 1.2 0 0 0-1-1 8.1 8.1 0 0 0-2.7.2z" fill="#8ba7d8"/><path data-name="Caminho 193" d="M191.3 2075.2H187l-.8 4.8h-2.6l2-11.2h2.5l-.7 4.4a41.4 41.4 0 0 0 4.2.1l.8-4.4h2.5a1.5 1.5 0 0 1 0 .2l-1.1 6.5-.7 4v.1c-.1.4-.1.4-.5.4h-2.1z" fill="#8ba7d8"/><path data-name="Caminho 194" d="M206.4 2080h-2.6l-.5-3H199a.5.5 0 0 0-.5.3l-1.2 2.5a.4.4 0 0 1-.4.2h-2.4l.2-.3 4.7-9.1a6 6 0 0 1 .4-.7 2.8 2.8 0 0 1 2.3-1.2 5 5 0 0 1 1 0 2 2 0 0 1 1.8 1.8l.6 3.6 1 5.5v.4zm-3.4-4.9v-.1l-.6-4a1.3 1.3 0 0 0 0-.3.2.2 0 0 0-.4-.1.2.2 0 0 0-.1 0 1 1 0 0 0-.1.3l-2.1 4a1.6 1.6 0 0 0 0 .3z" fill="#8ba7d8"/><path data-name="Caminho 195" d="M145.4 2069.9v2.5a2 2 0 0 1-1 1.8l-4.5 2.6a2.3 2.3 0 0 1-2.4 0l-4-2.3a2.4 2.4 0 0 1-1.5-2.4v-4.8a2.4 2.4 0 0 1 1.4-2.3l4-2.3a2.4 2.4 0 0 1 2.6 0l4.2 2.4a2.3 2.3 0 0 1 1.2 2.2zm-1.5-.1v-2.4a1 1 0 0 0-.6-1l-4-2.4a.9.9 0 0 0-1 0l-4.2 2.4a.9.9 0 0 0-.5 1v4.7a.9.9 0 0 0 .5.9l4.1 2.4a1 1 0 0 0 1.1 0l4-2.4a1 1 0 0 0 .6-1v-2.2z" fill="#8ba7d8"/><path data-name="Caminho 196" d="M172.8 2068.8l-.3 1.9h-3.8a4.4 4.4 0 0 0-.9 0 1.2 1.2 0 0 0-.8.9l-.4 1.7h5l-.3 1.9h-5l-.1.7-.3 1.2a.8.8 0 0 0 .7 1 2.8 2.8 0 0 0 .6 0h4a1 1 0 0 1 0 .5l-.2 1c-.1.4-.1.4-.4.4h-4.2a4 4 0 0 1-1.7-.4 2.2 2.2 0 0 1-1.3-2.5l.3-2.1.6-3.1a3.4 3.4 0 0 1 1.9-2.5 5.4 5.4 0 0 1 2.4-.6h3.9z" fill="#8ba7d8"/><path data-name="Caminho 197" d="M177.5 2070.7H174l.4-1.9h9.7l-.3 1.9H180l-1.6 9.3h-2.5z" fill="#8ba7d8"/><path data-name="Caminho 198" d="M135.5 2081v1.5a1.7 1.7 0 0 1-.9 1.6l-2.7 1.6a1.8 1.8 0 0 1-1.9 0l-2.8-1.6a1.7 1.7 0 0 1-.8-1.5v-3.3a1.8 1.8 0 0 1 1-1.6l2.6-1.5a1.8 1.8 0 0 1 2 0l2.6 1.6a1.7 1.7 0 0 1 1 1.6l-.1 1.6zm-7.8 0v1.5a.5.5 0 0 0 .3.5l2.6 1.5a.6.6 0 0 0 .7 0l2.5-1.4a.6.6 0 0 0 .4-.6v-3a.6.6 0 0 0-.4-.6l-2.5-1.6a.6.6 0 0 0-.7 0l-2.6 1.5a.6.6 0 0 0-.3.6v1.5z" fill="#8ba7d8"/><path data-name="Caminho 199" d="M129.6 2072.5v.7a1 1 0 0 1-.6 1l-1.3.8a1.1 1.1 0 0 1-1.2 0l-1.3-.8a1 1 0 0 1-.6-.9v-1.6a1 1 0 0 1 .6-1l1.3-.8a1.1 1.1 0 0 1 1.2 0l1.3.8a1.1 1.1 0 0 1 .6 1v.8zm-1 0v-.7a.3.3 0 0 0-.2-.2l-1.2-.7a.2.2 0 0 0-.2 0l-1.1.6a.3.3 0 0 0-.2.3v1.2a.3.3 0 0 0 .2.4l1 .6a.3.3 0 0 0 .4 0l.5-.3.7-.4z" fill="#8ba7d8"/><g data-name="Grupo 212"><rect data-name="Ret창ngulo 1069" width="87.7" height="34.7" rx="2" fill="none" stroke="#e1e3e6" stroke-linecap="round" stroke-linejoin="round" stroke-width="2" transform="translate(119.3 2198.4)"/></g></g></svg>