<svg xmlns="http://www.w3.org/2000/svg" xmlns:xlink="http://www.w3.org/1999/xlink" width="283" height="283" viewBox="0 0 283 283"><defs><clipPath id="a"><rect width="127.807" height="129" fill="none"/></clipPath></defs><g transform="translate(-100 -154)"><rect width="283" height="283" transform="translate(100 154)" fill="none"/><g transform="translate(12 2)"><path d="M7331.7,2780.942c.311.019.619.047.934.047h46.5a15,15,0,0,0,15-15v-46.5c0-.316-.028-.624-.047-.934Z" transform="translate(-7201.703 -2562.555)" fill="#eef6fa"/><path d="M7515.429,2720.786H7393.738v44.554a15,15,0,0,1-15,15h-46.044v195.224a17.95,17.95,0,0,0,17.95,17.949H7512.48a17.949,17.949,0,0,0,17.949-17.949V2735.786A15,15,0,0,0,7515.429,2720.786Z" transform="translate(-7202.193 -2562.555)" fill="#fff" stroke="#7faadc" stroke-linecap="round" stroke-linejoin="round" stroke-width="3"/><line x1="61.044" y2="59.553" transform="translate(130.991 158.231)" stroke-width="3" stroke="#7faadc" stroke-linecap="round" stroke-linejoin="round" fill="#fff"/><path d="M7371.219,2780.626h-38.193v38.193Z" transform="translate(-7201.703 -2562.555)" fill="#f5f7fa"/><path d="M7331.747,2780.942c.311.019.619.047.934.047h46.5a15,15,0,0,0,15-15v-46.5c0-.316-.028-.624-.047-.934Z" transform="translate(-7201.703 -2562.555)" fill="none"/><path d="M7515.473,2720.786h-121.69v44.554a15,15,0,0,1-15,15h-46.045v195.224a17.95,17.95,0,0,0,17.95,17.949h161.836a17.949,17.949,0,0,0,17.949-17.949V2735.786A15,15,0,0,0,7515.473,2720.786Z" transform="translate(-7201.238 -2562.286)" fill="none" stroke="#7faadc" stroke-linecap="round" stroke-linejoin="round" stroke-width="3"/><line x1="61.044" y2="59.553" transform="translate(131.035 158.231)" stroke-width="3" stroke="#7faadc" stroke-linecap="round" stroke-linejoin="round" fill="none"/><g transform="translate(166 243)" clip-path="url(#a)"><g transform="translate(-166 -228)"><line x2="76.306" y2="0.01" transform="translate(214.5 243.5)" stroke-width="6" stroke="#e1e3e6" stroke-linecap="round" stroke-linejoin="round" fill="none"/><g transform="translate(166 228)" fill="none" stroke="#e1e3e6" stroke-linejoin="round" stroke-width="6"><rect width="32" height="32" stroke="none"/><rect x="3" y="3" width="26" height="26" fill="none"/></g><g transform="translate(-7714.012 -1294.359)"><line x2="6.233" y2="6.233" transform="translate(7892.011 1536.236)" stroke-width="6" stroke="#7faadc" stroke-linecap="round" stroke-linejoin="round" fill="none"/><line x1="11.469" y2="11.469" transform="translate(7898.282 1531)" stroke-width="6" stroke="#7faadc" stroke-linecap="round" stroke-linejoin="round" fill="none"/></g></g><g transform="translate(-166 -183)"><line x2="76.306" y2="0.01" transform="translate(214.5 243.5)" stroke-width="6" stroke="#e1e3e6" stroke-linecap="round" stroke-linejoin="round" fill="none"/><g transform="translate(166 228)" fill="none" stroke="#e1e3e6" stroke-linejoin="round" stroke-width="6"><rect width="32" height="32" stroke="none"/><rect x="3" y="3" width="26" height="26" fill="none"/></g><g transform="translate(-7714.012 -1294.359)"><line x2="6.233" y2="6.233" transform="translate(7892.011 1536.236)" stroke-width="6" stroke="#7faadc" stroke-linecap="round" stroke-linejoin="round" fill="none"/><line x1="11.469" y2="11.469" transform="translate(7898.282 1531)" stroke-width="6" stroke="#7faadc" stroke-linecap="round" stroke-linejoin="round" fill="none"/></g></g><g transform="translate(-166 -138)"><line x2="76.306" y2="0.01" transform="translate(214.5 243.5)" stroke-width="6" stroke="#e1e3e6" stroke-linecap="round" stroke-linejoin="round" fill="none"/><g transform="translate(166 228)" fill="none" stroke="#e1e3e6" stroke-linejoin="round" stroke-width="6"><rect width="32" height="32" stroke="none"/><rect x="3" y="3" width="26" height="26" fill="none"/></g><g transform="translate(-7714.012 -1294.359)"><line x2="6.233" y2="6.233" transform="translate(7892.011 1536.236)" stroke-width="6" stroke="#7faadc" stroke-linecap="round" stroke-linejoin="round" fill="none"/><line x1="11.469" y2="11.469" transform="translate(7898.282 1531)" stroke-width="6" stroke="#7faadc" stroke-linecap="round" stroke-linejoin="round" fill="none"/></g></g></g></g></g></svg>