<svg xmlns="http://www.w3.org/2000/svg" width="283" height="283" viewBox="0 0 283 283"><g transform="translate(-135 -829)"><rect width="283" height="283" transform="translate(135 829)" fill="none"/><g transform="translate(-7396 430)"><g transform="translate(7555.534 472.177)"><circle cx="21.535" cy="21.535" r="21.535" transform="translate(176.232 47.465)" fill="#fff" stroke="#7faadc" stroke-linecap="round" stroke-linejoin="round" stroke-width="3"/><path d="M7865.783,628.145a13.971,13.971,0,0,0-3.017-4.844c-1.657-1.726-11.549-9.45-33.389-9.545h-.611c-21.82.1-31.731,7.819-33.39,9.545a13.867,13.867,0,0,0-3.009,4.844,11.359,11.359,0,0,0-.544,3.492v22.629h74.5V631.637A11.632,11.632,0,0,0,7865.783,628.145Z" transform="translate(-7631.305 -517.577)" fill="#ecf7fb" stroke="#a7c4e7" stroke-linecap="round" stroke-linejoin="round" stroke-width="3"/><path d="M7865.783,628.145a13.971,13.971,0,0,0-3.017-4.844c-1.657-1.726-11.549-9.45-33.389-9.545h-.611c-21.82.1-31.731,7.819-33.39,9.545a13.867,13.867,0,0,0-3.009,4.844,11.359,11.359,0,0,0-.544,3.492v22.629h74.5V631.637A11.632,11.632,0,0,0,7865.783,628.145Z" transform="translate(-7631.305 -517.577)" fill="none" stroke="#a7c4e7" stroke-miterlimit="10" stroke-width="3"/><circle cx="21.535" cy="21.535" r="21.535" transform="translate(17.126 46.181)" fill="#fff" stroke="#7faadc" stroke-miterlimit="10" stroke-width="3"/><path d="M7629.486,628.145a13.884,13.884,0,0,0-3.01-4.844c-1.657-1.726-11.548-9.45-33.389-9.545h-.611c-21.82.1-31.731,7.812-33.389,9.545a13.875,13.875,0,0,0-3.009,4.844,11.388,11.388,0,0,0-.543,3.492v22.629h74.5V631.637A11.418,11.418,0,0,0,7629.486,628.145Z" transform="translate(-7555.534 -517.577)" fill="#fff" stroke="#a7c4e7" stroke-miterlimit="10" stroke-width="3"/><path d="M7629.486,628.145a13.884,13.884,0,0,0-3.01-4.844c-1.657-1.726-11.548-9.45-33.389-9.545h-.611c-21.82.1-31.731,7.812-33.389,9.545a13.875,13.875,0,0,0-3.009,4.844,11.388,11.388,0,0,0-.543,3.492v22.629h74.5V631.637A11.418,11.418,0,0,0,7629.486,628.145Z" transform="translate(-7555.534 -517.577)" fill="#ecf7fb" stroke="#a7c4e7" stroke-linecap="round" stroke-linejoin="round" stroke-width="3"/><path d="M7759.07,600.592a22.268,22.268,0,0,0-4.81-7.738c-2.656-2.758-18.484-15.1-53.361-15.258h-.972c-34.876.156-50.705,12.5-53.361,15.258a22.408,22.408,0,0,0-4.81,7.738,18.227,18.227,0,0,0-.863,5.577v36.161h119.039V606.17A18.242,18.242,0,0,0,7759.07,600.592Z" transform="translate(-7582.906 -505.982)" fill="#fff" stroke="#a7c4e7" stroke-miterlimit="10" stroke-width="4"/><circle cx="30.937" cy="30.937" r="30.937" transform="translate(86.56)" fill="#fff" stroke="#7faadc" stroke-miterlimit="10" stroke-width="4"/><path d="M7761.748,601.309a31.5,31.5,0,0,0-4.81-7.738c-3.553-4.192-9.966-9.456-29.3-12.907-13.512-2.418-29.619-5.306-50.114.211a98.087,98.087,0,0,0-28.281,12.7c4.694-1.868,58.178-22.214,94.978,7.262a71.379,71.379,0,0,1,18.389,22.418Q7762.183,612.28,7761.748,601.309Z" transform="translate(-7585.584 -506.019)" fill="#ecf7fb"/><path d="M7759.07,600.592a22.268,22.268,0,0,0-4.81-7.738c-2.656-2.758-18.484-15.1-53.361-15.258h-.972c-34.876.156-50.705,12.5-53.361,15.258a22.408,22.408,0,0,0-4.81,7.738,18.227,18.227,0,0,0-.863,5.577v36.161h119.039V606.17A18.242,18.242,0,0,0,7759.07,600.592Z" transform="translate(-7582.906 -505.982)" fill="none" stroke="#a7c4e7" stroke-miterlimit="10" stroke-width="4"/></g></g></g></svg>