<svg width="194" height="194" fill="none" xmlns="http://www.w3.org/2000/svg"><path d="M24.6 14.5a8.3 8.3 0 0 1 8-8.3h117a8.3 8.3 0 0 1 9 8.3v153a8.3 8.3 0 0 1-8.3 8.3H32.6a8.3 8.3 0 0 1-8-8.3v-153Z" fill="silver"/><path d="M29.6 19a8.3 8.3 0 0 1 8.6-8.2h117a8.3 8.3 0 0 1 8.6 8.3v153a8.3 8.3 0 0 1-8.3 8.4H38a8.3 8.3 0 0 1-8.3-8V19Z" fill="#fff"/><path d="M34.8 25a8.3 8.3 0 0 1 8.3-8.4h117a8.3 8.3 0 0 1 9.3 8.3v153a8.3 8.3 0 0 1-8.3 8.4H43a8.3 8.3 0 0 1-8.3-8.3V25Z" fill="#EBEDF0"/><path d="M77 57.5c0-2 1.6-3.5 3.5-3.5h71a3.5 3.5 0 1 1 0 7h-71c-2 0-3.5-1.6-3.5-3.5Z" fill="#CDCDCD"/><path d="M57.5 48a9.5 9.5 0 1 1 0 19 9.5 9.5 0 0 1 0-19Z" fill="#74B985"/><path d="M61.2 54.1c-.3 0-.5.1-.7.3L56 58.9l-1.5-1.6a.8.8 0 0 0-1.1 0l-.6.7c-.3.2-.3.7 0 1l2.1 2.2.6.7c.3.2.8.2 1.1 0l.7-.7 5-5c.3-.3.3-.9 0-1.2l-.6-.6a.7.7 0 0 0-.5-.2Z" fill="#fff"/><path d="M66 166h-3.6c-.2 0-.4.2-.4.4v3.6c0 .2.2.4.4.4H66c.2 0 .4-.2.4-.4v-3.6c0-.2-.2-.4-.4-.4ZM61.5 162.4h-2.7c-.2 0-.4.2-.4.4v2.7c0 .3.2.5.4.5h2.7c.3 0 .5-.2.5-.5v-2.7c0-.2-.2-.4-.5-.4ZM69.6 170.4h-2.7c-.3 0-.5.2-.5.5v2.7c0 .2.2.4.5.4h2.7c.2 0 .4-.2.4-.4v-2.7c0-.3-.2-.5-.4-.5ZM69.6 162.4h-1.8c-.3 0-.5.2-.5.4v1.8c0 .3.2.5.5.5h1.8c.2 0 .4-.2.4-.5v-1.8c0-.2-.2-.4-.4-.4ZM60.6 171.3h-1.8c-.2 0-.4.2-.4.5v1.8c0 .2.2.4.4.4h1.8c.3 0 .5-.2.5-.4v-1.8c0-.3-.2-.5-.5-.5ZM66 152.6h-3.6c-.2 0-.4.2-.4.4v3.6c0 .2.2.4.4.4H66c.2 0 .4-.2.4-.4V153c0-.2-.2-.4-.4-.4Z" fill="#000"/><path fill-rule="evenodd" clip-rule="evenodd" d="M58.4 150.8c0-1 .8-1.8 1.8-1.8h8c1 0 1.8.8 1.8 1.8v8c0 1-.8 1.8-1.8 1.8h-8c-1 0-1.8-.8-1.8-1.8v-8Zm9.8 0h-8v8h8v-8Z" fill="#000"/><path d="M52.6 152.6H49c-.2 0-.4.2-.4.4v3.6c0 .2.2.4.4.4h3.6c.2 0 .4-.2.4-.4V153c0-.2-.2-.4-.4-.4Z" fill="#000"/><path fill-rule="evenodd" clip-rule="evenodd" d="M45 150.8c0-1 .8-1.8 1.8-1.8h8c1 0 1.8.8 1.8 1.8v8c0 1-.8 1.8-1.8 1.8h-8c-1 0-1.8-.8-1.8-1.8v-8Zm9.8 0h-8v8h8v-8Z" fill="#000"/><path d="M52.6 166H49c-.2 0-.4.2-.4.4v3.6c0 .2.2.4.4.4h3.6c.2 0 .4-.2.4-.4v-3.6c0-.2-.2-.4-.4-.4Z" fill="#000"/><path fill-rule="evenodd" clip-rule="evenodd" d="M45 164.2c0-1 .8-1.8 1.8-1.8h8c1 0 1.8.8 1.8 1.8v8c0 1-.8 1.8-1.8 1.8h-8c-1 0-1.8-.8-1.8-1.8v-8Zm9.8 0h-8v8h8v-8Z" fill="#000"/><path d="M45 138c0-1.1.9-2 2-2h74a2 2 0 1 1 0 4H47a2 2 0 0 1-2-2ZM77 151.5c0-.8.7-1.5 1.5-1.5h75a1.5 1.5 0 0 1 0 3h-75c-.8 0-1.5-.7-1.5-1.5ZM77 158.5c0-.8.7-1.5 1.5-1.5h75a1.5 1.5 0 0 1 0 3h-75c-.8 0-1.5-.7-1.5-1.5ZM77 165.5c0-.8.7-1.5 1.5-1.5h75a1.5 1.5 0 0 1 0 3h-75c-.8 0-1.5-.7-1.5-1.5Z" fill="#CDCDCD"/><path d="M54.7 29.7V37h-1.3l-3.2-4.6V37h-1.6v-7.3H50l3.1 4.6v-4.6h1.6Zm3.7 7.4c-.5 0-1-.1-1.4-.3l-1-1-.3-1.5c0-.6.1-1 .4-1.5.2-.4.5-.7.9-1 .4-.2.9-.3 1.4-.3.6 0 1 0 1.4.3.5.3.8.6 1 1 .2.4.3 1 .3 1.5 0 .6-.1 1-.3 1.5-.2.4-.5.7-1 1-.4.2-.8.3-1.4.3Zm0-1.2c.3 0 .5 0 .7-.2.1-.1.3-.3.3-.6l.2-.8c0-.3 0-.6-.2-.9l-.3-.6a1 1 0 0 0-.7-.2 1 1 0 0 0-.6.2l-.4.6-.1.9.1.8c0 .3.2.5.4.6.2.2.4.2.6.2Zm3.7 1.1v-7.3H65c.5 0 1 .1 1.4.3.4.3.7.5.9 1 .2.3.3.7.3 1.2s-.1.9-.3 1.3c-.2.3-.5.6-1 .8a3 3 0 0 1-1.4.3h-1.8v-1.2h1.6l.7-.1.5-.5.1-.6-.1-.6a1 1 0 0 0-.5-.5l-.7-.1h-1v6H62Zm7.9.1c-.4 0-.7 0-1-.2l-.6-.5c-.2-.3-.2-.6-.2-1l.1-.7.5-.5.6-.3.8-.1a19.5 19.5 0 0 0 1.2-.2l.1-.3c0-.2 0-.4-.2-.5a.9.9 0 0 0-.6-.2 1 1 0 0 0-.6.2c-.2 0-.3.2-.3.4l-1.4-.1a1.9 1.9 0 0 1 1.2-1.4 3.5 3.5 0 0 1 2 0c.3 0 .5 0 .7.2a1.6 1.6 0 0 1 .7 1.4V37h-1.4v-.8a1.5 1.5 0 0 1-1 .8l-.6.1Zm.4-1c.2 0 .4 0 .6-.2.2 0 .3-.2.4-.3l.1-.5v-.6h-.2a3.5 3.5 0 0 1-.5.2 100.7 100.7 0 0 0-1 .4c-.2 0-.2.2-.2.3 0 .2 0 .4.2.5l.6.2Zm3.8 3v-7.6h1.5v1l.4-.5.5-.4.7-.1a2 2 0 0 1 2 1.2l.2 1.6c0 .6 0 1.1-.3 1.5-.2.4-.4.8-.8 1a2 2 0 0 1-1 .3c-.4 0-.6 0-.8-.2-.2 0-.4-.2-.5-.3-.2-.2-.3-.3-.3-.5v3h-1.6Zm1.5-4.8.1.8.4.6.6.2c.3 0 .5 0 .7-.2l.4-.6V33.4l-.4-.5a1 1 0 0 0-.7-.2 1 1 0 0 0-.6.2l-.4.5-.1.9ZM83 37a3 3 0 0 1-1.4-.3l-1-1c-.2-.4-.3-1-.3-1.5 0-.6.1-1 .4-1.5.2-.4.5-.7.9-1 .4-.2.8-.3 1.4-.3l1 .1a2.2 2.2 0 0 1 1.3 1.4c.2.4.2.8.2 1.2v.5H81v-1h3.2l-.1-.6a1 1 0 0 0-.4-.4l-.6-.1c-.2 0-.4 0-.6.2-.2 0-.3.2-.4.4l-.2.6v.9c0 .2 0 .5.2.7 0 .2.2.3.4.4l.7.2h.4l.4-.3.2-.4 1.4.1c0 .4-.2.7-.4 1-.3.2-.5.4-.9.5l-1.2.2Zm3.5-.1v-5.5H88v1l.5-.8.9-.2a2.3 2.3 0 0 1 .4 0V33h-.3l-.3-.1-.6.1a1 1 0 0 0-.6 1V37h-1.5Z" fill="#000BF9"/></svg>