<svg width="194" height="194" viewBox="0 0 194 194" fill="none" xmlns="http://www.w3.org/2000/svg">
<path d="M28.7969 20.9429C28.7969 18.7378 29.6728 16.623 31.2321 15.0638C32.7913 13.5046 34.9061 12.6286 37.1112 12.6286H154.127C155.294 12.4981 156.475 12.6163 157.593 12.9752C158.711 13.3342 159.74 13.926 160.613 14.7114C161.486 15.4969 162.182 16.4583 162.657 17.5323C163.131 18.6064 163.372 19.7687 163.365 20.9429V173.987C163.365 176.192 162.489 178.307 160.93 179.866C159.371 181.426 157.256 182.302 155.051 182.302H37.1112C34.9061 182.302 32.7913 181.426 31.2321 179.866C29.6728 178.307 28.7969 176.192 28.7969 173.987V20.9429Z" fill="#EBEDF0"/>
<path fill-rule="evenodd" clip-rule="evenodd" d="M152.177 12.6286H154.127C154.321 12.6069 154.516 12.5921 154.71 12.5841L154.792 14.5824C154.644 14.5885 154.497 14.5997 154.349 14.6162L154.239 14.6286H152.177V12.6286ZM157.03 12.8162L156.554 14.7587C156.698 14.7939 156.84 14.8342 156.982 14.8795C157.123 14.9248 157.262 14.9751 157.399 15.0301L158.143 13.1735C157.963 13.1011 157.779 13.035 157.593 12.9753C157.407 12.9156 157.219 12.8625 157.03 12.8162ZM160.165 14.3358L158.935 15.9127C159.051 16.0037 159.165 16.0988 159.275 16.198C159.385 16.2972 159.492 16.4002 159.594 16.5065L161.034 15.1177C160.898 14.9776 160.758 14.8421 160.613 14.7114C160.468 14.5808 160.318 14.4555 160.165 14.3358ZM162.402 17.0061L160.633 17.9407C160.703 18.0714 160.767 18.2047 160.827 18.3404C160.887 18.4761 160.942 18.6136 160.992 18.7527L162.874 18.0753C162.808 17.8921 162.735 17.711 162.657 17.5324C162.578 17.3537 162.493 17.1782 162.402 17.0061ZM163.348 20.3584L161.352 20.4866C161.362 20.6341 161.366 20.7822 161.365 20.9305V22.905H163.365V20.9429C163.366 20.7476 163.361 20.5527 163.348 20.3584ZM163.365 30.7534H161.365V34.6776H163.365V30.7534ZM163.365 42.5261H161.365V46.4503H163.365V42.5261ZM163.365 54.2987H161.365V58.2229H163.365V54.2987ZM163.365 66.0714H161.365V69.9956H163.365V66.0714ZM163.365 77.844H161.365V81.7682H163.365V77.844ZM163.365 89.6167H161.365V93.5409H163.365V89.6167ZM163.365 101.389H161.365V105.314H163.365V101.389ZM163.365 113.162H161.365V117.086H163.365V113.162ZM163.365 124.935H161.365V128.859H163.365V124.935ZM163.365 136.707H161.365V140.632H163.365V136.707ZM163.365 148.48H161.365V152.404H163.365V148.48ZM163.365 160.253H161.365V164.177H163.365V160.253ZM163.365 172.025H161.365V173.987C161.365 174.265 161.347 174.54 161.311 174.812L163.294 175.073C163.341 174.715 163.365 174.352 163.365 173.987V172.025ZM161.647 179.049L160.06 177.831C159.894 178.049 159.712 178.256 159.516 178.452C159.32 178.648 159.112 178.83 158.895 178.997L160.112 180.584C160.399 180.364 160.672 180.124 160.93 179.866C161.188 179.608 161.427 179.335 161.647 179.049ZM156.136 182.231L155.875 180.248C155.603 180.283 155.328 180.302 155.051 180.302H153.085V182.302H155.051C155.416 182.302 155.778 182.278 156.136 182.231ZM145.223 182.302V180.302H141.291V182.302H145.223ZM133.429 182.302V180.302H129.497V182.302H133.429ZM121.635 182.302V180.302H117.703V182.302H121.635ZM109.841 182.302V180.302H105.909V182.302H109.841ZM98.0467 182.302V180.302H94.1153V182.302H98.0467ZM86.2527 182.302V180.302H82.3214V182.302H86.2527ZM74.4587 182.302V180.302H70.5274V182.302H74.4587ZM62.6648 182.302V180.302H58.7334V182.302H62.6648ZM50.8708 182.302V180.302H46.9395V182.302H50.8708ZM39.0768 182.302V180.302H37.1112C36.8339 180.302 36.5586 180.283 36.2869 180.248L36.0259 182.231C36.3838 182.278 36.7462 182.302 37.1112 182.302H39.0768ZM32.0497 180.584L33.2673 178.997C33.0499 178.83 32.8423 178.648 32.6463 178.452C32.4502 178.256 32.2685 178.049 32.1016 177.831L30.5149 179.049C30.7347 179.335 30.974 179.608 31.2321 179.866C31.4901 180.124 31.7634 180.364 32.0497 180.584ZM28.868 175.073L30.8509 174.812C30.8151 174.54 30.7969 174.265 30.7969 173.987V172.025H28.7969V173.987C28.7969 174.352 28.8209 174.715 28.868 175.073ZM28.7969 164.177H30.7969V160.253H28.7969V164.177ZM28.7969 152.404H30.7969V148.48H28.7969V152.404ZM28.7969 140.632H30.7969V136.707H28.7969V140.632ZM28.7969 128.859H30.7969V124.935H28.7969V128.859ZM28.7969 117.086H30.7969V113.162H28.7969V117.086ZM28.7969 105.314H30.7969V101.389H28.7969V105.314ZM28.7969 93.5409H30.7969V89.6167H28.7969V93.5409ZM28.7969 81.7683H30.7969V77.844H28.7969V81.7683ZM28.7969 69.9956H30.7969V66.0714H28.7969V69.9956ZM28.7969 58.223H30.7969V54.2987H28.7969V58.223ZM28.7969 46.4503H30.7969V42.5261H28.7969V46.4503ZM28.7969 34.6777H30.7969V30.7534H28.7969V34.6777ZM28.7969 22.905H30.7969V20.9429C30.7969 20.6657 30.8151 20.3904 30.8509 20.1187L28.868 19.8576C28.8209 20.2155 28.7969 20.578 28.7969 20.9429V22.905ZM30.5149 15.8815L32.1016 17.099C32.2685 16.8816 32.4502 16.6741 32.6463 16.478C32.8423 16.282 33.0499 16.1002 33.2673 15.9334L32.0498 14.3467C31.7634 14.5664 31.4901 14.8058 31.2321 15.0638C30.974 15.3219 30.7347 15.5951 30.5149 15.8815ZM36.0259 12.6997L36.2869 14.6826C36.5586 14.6468 36.8339 14.6286 37.1112 14.6286H39.0614V12.6286H37.1112C36.7462 12.6286 36.3838 12.6526 36.0259 12.6997ZM46.8625 12.6286V14.6286H50.763V12.6286H46.8625ZM58.5641 12.6286V14.6286H62.4646V12.6286H58.5641ZM70.2657 12.6286V14.6286H74.1662V12.6286H70.2657ZM81.9672 12.6286V14.6286H85.8678V12.6286H81.9672ZM93.6688 12.6286V14.6286H97.5694V12.6286H93.6688ZM105.37 12.6286V14.6286H109.271V12.6286H105.37ZM117.072 12.6286V14.6286H120.973V12.6286H117.072ZM128.774 12.6286V14.6286H132.674V12.6286H128.774ZM140.475 12.6286V14.6286H144.376V12.6286H140.475Z" fill="#767676"/>
<path d="M71 39.5C71 37.567 72.567 36 74.5 36H145.5C147.433 36 149 37.567 149 39.5V39.5C149 41.433 147.433 43 145.5 43H74.5C72.567 43 71 41.433 71 39.5V39.5Z" fill="#CDCDCD"/>
<path d="M51.5162 30C56.7719 30 61.0325 34.2606 61.0325 39.5162C61.0325 44.7719 56.7719 49.0325 51.5162 49.0325C46.2606 49.0325 42 44.7719 42 39.5162C42 34.2606 46.2606 30 51.5162 30Z" fill="#74B985"/>
<path d="M55.1567 36.1313C54.9012 36.1313 54.7096 36.1952 54.518 36.3868L50.0473 40.8575L48.5145 39.3247C48.1951 39.0053 47.6842 39.0053 47.3648 39.3247L46.79 39.9633C46.4707 40.2188 46.4707 40.7297 46.79 41.0491L48.8977 43.2206L49.5363 43.8592C49.7918 44.1147 50.3027 44.1147 50.6221 43.8592L51.2608 43.2206L56.3063 38.1112C56.6256 37.8557 56.6256 37.3448 56.3063 37.0254L55.6676 36.3868C55.5399 36.259 55.3483 36.1952 55.1567 36.1952V36.1313Z" fill="white"/>
<path d="M71 66.5C71 64.567 72.567 63 74.5 63H145.5C147.433 63 149 64.567 149 66.5V66.5C149 68.433 147.433 70 145.5 70H74.5C72.567 70 71 68.433 71 66.5V66.5Z" fill="#CDCDCD"/>
<path d="M51.5162 57C56.7719 57 61.0325 61.2606 61.0325 66.5162C61.0325 71.7719 56.7719 76.0325 51.5162 76.0325C46.2606 76.0325 42 71.7719 42 66.5162C42 61.2606 46.2606 57 51.5162 57Z" fill="#74B985"/>
<path d="M55.1567 63.1313C54.9012 63.1313 54.7096 63.1952 54.518 63.3868L50.0473 67.8575L48.5145 66.3247C48.1951 66.0053 47.6842 66.0053 47.3648 66.3247L46.79 66.9633C46.4707 67.2188 46.4707 67.7297 46.79 68.0491L48.8977 70.2206L49.5363 70.8592C49.7918 71.1147 50.3027 71.1147 50.6221 70.8592L51.2608 70.2206L56.3063 65.1112C56.6256 64.8557 56.6256 64.3448 56.3063 64.0254L55.6676 63.3868C55.5399 63.259 55.3483 63.1952 55.1567 63.1952V63.1313Z" fill="white"/>
<path d="M71 93.5C71 91.567 72.567 90 74.5 90H145.5C147.433 90 149 91.567 149 93.5V93.5C149 95.433 147.433 97 145.5 97H74.5C72.567 97 71 95.433 71 93.5V93.5Z" fill="#CDCDCD"/>
<path d="M51.5162 84C56.7719 84 61.0325 88.2606 61.0325 93.5162C61.0325 98.7719 56.7719 103.032 51.5162 103.032C46.2606 103.032 42 98.7719 42 93.5162C42 88.2606 46.2606 84 51.5162 84Z" fill="#74B985"/>
<path d="M55.1567 90.1313C54.9012 90.1313 54.7096 90.1952 54.518 90.3868L50.0473 94.8575L48.5145 93.3247C48.1951 93.0053 47.6842 93.0053 47.3648 93.3247L46.79 93.9633C46.4707 94.2188 46.4707 94.7297 46.79 95.0491L48.8977 97.2206L49.5363 97.8592C49.7918 98.1147 50.3027 98.1147 50.6221 97.8592L51.2608 97.2206L56.3063 92.1112C56.6256 91.8557 56.6256 91.3448 56.3063 91.0254L55.6676 90.3868C55.5399 90.259 55.3483 90.1952 55.1567 90.1952V90.1313Z" fill="white"/>
</svg>
