<svg xmlns="http://www.w3.org/2000/svg" xmlns:xlink="http://www.w3.org/1999/xlink" width="246" height="246"><defs><rect id="a" width="85.8" height="37.7" x="0" y="0" rx="8"/></defs><g fill="none" fill-rule="evenodd"><path d="M12.8 11.8v227.4h227.4V11.8H12.8M12 11h229v229H12V11z"/><path fill="#CFDFF2" d="M117.2 175h-16.7c7.3 0 13.2 5.8 13.4 13v3.5h.4c7 0 12.8 5.5 13 12.5v9.7c0 1.8-1.4 3.2-3.2 3.3h-.2 16.8c1.8 0 3.3-1.5 3.3-3.3v-9.5c0-7-5.8-12.7-13-12.7h-.4v-3.3c0-7.3-6-13.2-13.4-13.2h-16.7 16.7z"/><path fill="#237792" d="M33.8 191.5h97.4c7 0 12.8 5.7 12.8 12.7v8.8a4 4 0 01-4 4H25a4 4 0 01-4-4v-8.8c0-7 5.7-12.7 12.8-12.7z"/><path fill="#2D98BB" d="M50.4 175h65a16 16 0 0116 16v3h-97v-3a16 16 0 0116-16z"/><g transform="rotate(-45 158.2 1.6)"><rect width="85.8" height="51.9" x="21" y=".6" fill="#87640B" rx="8"/><path fill="#584107" d="M71.1 65.3V78a8 8 0 00-2-.3H59a8 8 0 00-1.3.1V65.3h13.3z"/><path fill="#B6860F" d="M91 49.7H37.4V60a8 8 0 008 8H83a8 8 0 008-8V49.7z"/><use fill="#584107" transform="translate(21.3 14.5)" xlink:href="#a"/><path fill="#B6860F" d="M127.7 5v43.8a4 4 0 01-4 4h-13.3a6 6 0 01-6-6V6.9a6 6 0 016-6h13.3a4 4 0 014 4zM.7 5v43.8a4 4 0 004 4H18a6 6 0 006-6V6.9a6 6 0 00-6-6H4.7a4 4 0 00-4 4z"/><path fill="#87640B" d="M57.5 75.4h14a6 6 0 015.9 6v99.7a13 13 0 01-13 13.2 13 13 0 01-12.8-13.2V81.5a6 6 0 015.9-6z"/><path fill="#584107" d="M69.4 75.4a8 8 0 018 8v98a13 13 0 01-17.7 12 13 13 0 008-12v-98a8 8 0 00-8-8h9.7z"/><path fill="#B6860F" d="M51.6 165h25.8v11.3H51.6z"/></g><g stroke="#237792" stroke-linecap="round" stroke-width="4"><path d="M37.6 171v-17.6M33.8 174.2l-12.3-12.4M30.9 178.6H13.4"/></g></g></svg>