<svg id="Camada_1" xmlns="http://www.w3.org/2000/svg" viewBox="0 0 484.9 322.6"><style>.st0{fill:#edf9fe;enable-background:new}.st1,.st2{stroke:silver}.st1{fill:#fff;stroke-linecap:round;stroke-linejoin:round;stroke-width:2.82}.st2{stroke-width:4.23}.st2,.st3,.st4,.st8{fill:none;stroke-linecap:round;stroke-linejoin:round}.st3{enable-background:new;stroke:#bce8fc;stroke-width:4.94}.st4,.st8{stroke:#8bd7fa;stroke-width:3}.st8{stroke:silver;stroke-width:5.3}.st10,.st9{enable-background:new}.st9{stroke:#bce8fc;stroke-width:6.18;stroke-linecap:round;stroke-linejoin:round;fill:none}.st10{fill:#bce8fc}</style><g id="Camada_2_3_"><g id="Camada_4_2_"><path class="st0" d="M254.1 291.9L366 163.3c5.8-6.7 16-7.4 22.8-1.6 6.7 5.8 7.4 16 1.6 22.8L278.4 313c-5.8 6.7-16 7.4-22.8 1.6a16 16 0 0 1-1.5-22.7zM344.7 271.4l111.9-128.6c5.8-6.7 16-7.4 22.8-1.6 6.7 5.8 7.4 16 1.6 22.8L369.1 292.5a16.1 16.1 0 1 1-24.4-21.1zM204.2 65.3l37.9-43.6c5.8-6.7 16-7.4 22.8-1.6 6.7 5.8 7.4 16 1.6 22.8l-37.9 43.6c-5.8 6.7-16 7.4-22.8 1.6a16.3 16.3 0 0 1-1.6-22.8zM46.7 265.8l51.1-58.7c5.8-6.7 16-7.4 22.8-1.6 6.7 5.8 7.4 16 1.6 22.8L71 287c-5.8 6.7-16 7.4-22.8 1.6a16.2 16.2 0 0 1-1.5-22.8zM72.2 99l51.1-58.7c5.8-6.7 16-7.4 22.8-1.6 6.7 5.8 7.4 16 1.6 22.8l-51.1 58.7c-5.8 6.7-16 7.4-22.8 1.6A16 16 0 0 1 72.2 99zM152.5 295.9l10.8-12.4c5.8-6.7 16-7.4 22.8-1.6 6.7 5.8 7.4 16 1.6 22.8L176.8 317c-5.8 6.7-16 7.4-22.8 1.6-6.6-5.8-7.3-16-1.5-22.7zM4 189.9l13.2-15.1c5.8-6.7 16-7.4 22.8-1.6 6.7 5.8 7.4 16 1.6 22.8l-13.2 15.1c-5.8 6.7-16 7.4-22.8 1.6A16 16 0 0 1 4 189.9zM332.7 113.4l51.1-58.7c5.8-6.7 16-7.4 22.8-1.6 6.7 5.8 7.4 16 1.6 22.8L357 134.5c-5.8 6.7-16 7.4-22.8 1.6-6.6-5.8-7.3-16-1.5-22.7zM342.8 16.3l9.4-10.8c5.8-6.7 16-7.4 22.8-1.6 6.7 5.8 7.4 16 1.6 22.8l-9.4 10.8c-5.8 6.7-16 7.4-22.8 1.6a16 16 0 0 1-1.6-22.8z"/><path class="st1" d="M51.2 91.2L170.7 53a13.1 13.1 0 0 1 16.5 8.5l51.5 160.9a13.1 13.1 0 0 1-8.5 16.5l-119.6 38.2a13.1 13.1 0 0 1-16.5-8.5L42.7 107.7a13.1 13.1 0 0 1 8.5-16.5z"/><path class="st2" d="M85.6 133.4l81.5-26.1M90.1 147.4l81.5-26.1"/><path class="st3" d="M81.2 119.3l25.4-8.1"/><path class="st1" d="M374.3 277.2L254.7 239a13.1 13.1 0 0 1-8.5-16.5l51.5-160.9a13.1 13.1 0 0 1 16.5-8.5l119.6 38.2a13.1 13.1 0 0 1 8.5 16.5l-51.5 160.9a13.1 13.1 0 0 1-16.5 8.5z"/><path class="st2" d="M399.3 133.4l-81.5-26.1M394.8 147.4l-81.5-26.1"/><path class="st3" d="M403.8 119.3l-25.4-8.1"/><circle class="st4" cx="21.3" cy="167.7" r="5"/><circle class="st4" cx="448" cy="225.4" r="5"/><path class="st4" d="M465.3 99.8l9.9 9.9M465.3 109.7l9.9-9.9M131 30.4l9.9 9.9M131 40.3l9.9-9.9"/><path transform="rotate(-45 294.2 307)" class="st4" d="M289 301.8h10.3v10.3H289z"/><path transform="rotate(-45 66 261.8)" class="st4" d="M60.8 256.6h10.3v10.3H60.8z"/><path transform="rotate(-45 314.6 27)" class="st4" d="M309.4 21.9h10.3v10.3h-10.3z"/><path d="M203 43.3l-55.3 54.8 52.7 1.7 2.6-56.5z" fill="#fff"/><path d="M322.9 42.4H203v34c0 11.5-9.3 20.8-20.8 20.8h-34.4v175.3c0 7.9 6.4 14.3 14.2 14.3h160.9c7.9 0 14.3-6.4 14.3-14.2v-216c0-7.8-6.4-14.2-14.3-14.2z" fill="#fff" stroke="silver" stroke-width="3.5" stroke-linecap="round" stroke-linejoin="round"/><path fill="none" stroke="silver" stroke-width="3.5" stroke-miterlimit="10" d="M147.7 97.2L203 42.4"/><path class="st0" d="M149.5 98.9h29.8l-29.8 34.2V98.9z"/><path class="st8" d="M185.4 230.4h107M185.4 248.9h107"/><path class="st9" d="M185.4 212h33.4"/><circle class="st10" cx="206.3" cy="125.8" r="4.4"/><circle class="st10" cx="278.6" cy="124.9" r="4.4"/><path class="st9" d="M206.5 149.8c26.3 16.7 45.8 18.3 72.5 1.5"/></g></g></svg>