<svg id="Camada_1" xmlns="http://www.w3.org/2000/svg" viewBox="0 0 484.9 322.6"><style>.st0{fill:#f2f2f2;enable-background:new}.st1,.st2{fill:#fff;stroke:silver;stroke-width:2.82;stroke-linecap:round;stroke-linejoin:round}.st2{fill:none}.st6{fill:silver;enable-background:new}</style><g id="Camada_2_1_"><g id="Camada_4"><path class="st0" d="M254.1 291.9L366 163.3c5.8-6.7 16-7.4 22.8-1.6 6.7 5.8 7.4 16 1.6 22.8L278.4 313c-5.8 6.7-16 7.4-22.8 1.6a16 16 0 0 1-1.5-22.7zM344.7 271.4l111.9-128.6c5.8-6.7 16-7.4 22.8-1.6 6.7 5.8 7.4 16 1.6 22.8L369.1 292.5a16.1 16.1 0 1 1-24.4-21.1zM204.8 66.3L242.9 23A16 16 0 1 1 267 44.2l-38 43.4a16.1 16.1 0 0 1-22.7 1.5 16 16 0 0 1-1.5-22.8zM45.8 266.8l51.4-58.4a16 16 0 1 1 24.1 21.2L70 288.1a16.1 16.1 0 0 1-22.7 1.5 16.2 16.2 0 0 1-1.5-22.8zM72.2 99l51.1-58.7c5.8-6.7 16-7.4 22.8-1.6 6.7 5.8 7.4 16 1.6 22.8l-51.1 58.7c-5.8 6.7-16 7.4-22.8 1.6A16 16 0 0 1 72.2 99zM152.5 295.9l10.8-12.4c5.8-6.7 16-7.4 22.8-1.6 6.7 5.8 7.4 16 1.6 22.8L176.8 317c-5.8 6.7-16 7.4-22.8 1.6-6.6-5.8-7.3-16-1.5-22.7zM4 189.9l13.2-15.1c5.8-6.7 16-7.4 22.8-1.6 6.7 5.8 7.4 16 1.6 22.8l-13.2 15.1c-5.8 6.7-16 7.4-22.8 1.6A16 16 0 0 1 4 189.9zM333.5 115.1l51.4-58.4A16 16 0 1 1 409 77.9l-51.4 58.4a16.1 16.1 0 0 1-22.7 1.5c-6.6-5.8-7.2-16-1.4-22.7zM342.8 16.3l9.4-10.8c5.8-6.7 16-7.4 22.8-1.6 6.7 5.8 7.4 16 1.6 22.8l-9.4 10.8c-5.8 6.7-16 7.4-22.8 1.6a16 16 0 0 1-1.6-22.8z"/><path class="st1" d="M51.2 91.2L170.7 53a13.1 13.1 0 0 1 16.5 8.5l51.5 160.9a13.1 13.1 0 0 1-8.5 16.5l-119.6 38.2a13.1 13.1 0 0 1-16.5-8.5L42.7 107.7a13.1 13.1 0 0 1 8.5-16.5zM374.3 277.2L254.7 239a13.1 13.1 0 0 1-8.5-16.5l51.5-160.9a13.1 13.1 0 0 1 16.5-8.5l119.6 38.2a13.1 13.1 0 0 1 8.5 16.5l-51.5 160.9a13.1 13.1 0 0 1-16.5 8.5z"/><circle class="st2" cx="21.3" cy="167.7" r="5"/><circle class="st2" cx="448" cy="225.4" r="5"/><path class="st2" d="M465.3 99.8l9.9 9.9M465.3 109.7l9.9-9.9M131 30.4l9.9 9.9M131 40.3l9.9-9.9"/><path transform="rotate(-45 294.2 307)" class="st2" d="M289 301.8h10.3v10.3H289z"/><path transform="rotate(-45 66 261.8)" class="st2" d="M60.8 256.6h10.3v10.3H60.8z"/><path transform="rotate(-45 314.6 27)" class="st2" d="M309.4 21.9h10.3v10.3h-10.3z"/><path d="M203 43.3l-55.3 54.8 52.7 1.7 2.6-56.5z" fill="#fff"/><path d="M322.9 42.4H203v34c0 11.5-9.3 20.8-20.8 20.8h-34.4v175.3c0 7.9 6.4 14.3 14.2 14.3h160.9c7.9 0 14.3-6.4 14.3-14.2v-216c0-7.8-6.4-14.2-14.3-14.2z" fill="#fff" stroke="silver" stroke-width="3.5" stroke-linecap="round" stroke-linejoin="round"/><path fill="none" stroke="silver" stroke-width="3.5" stroke-miterlimit="10" d="M147.7 97.2L203 42.4"/><path class="st0" d="M149.5 98.9h29.8l-29.8 34.2V98.9z"/><circle class="st6" cx="206.3" cy="125.8" r="4.4"/><circle class="st6" cx="278.6" cy="124.9" r="4.4"/><g><path d="M206.5 163.1c26.3-16.7 45.8-18.3 72.5-1.5" fill="none" stroke="silver" stroke-width="5" stroke-linecap="round" stroke-linejoin="round"/></g></g></g></svg>