<svg xmlns="http://www.w3.org/2000/svg" viewBox="0 0 489.3 326.8"><style>.st0{fill:#edf9fe}.st1,.st2,.st4{fill:#fff;stroke:silver;stroke-width:2.82;stroke-linecap:round;stroke-linejoin:round}.st2,.st4{fill:none;stroke-width:4.23}.st4{stroke:#8bd7fa;stroke-width:3}</style><g id="Camada_2"><g id="Camada_2_3_"><g id="Camada_4_2_"><path class="st0" d="M256.1 294.9L368 166.3c5.8-6.7 16-7.4 22.8-1.6 6.7 5.8 7.4 16 1.6 22.8L280.4 316c-5.8 6.7-16 7.4-22.8 1.6a16 16 0 0 1-1.5-22.7zM346.7 274.4l111.9-128.6c5.8-6.7 16-7.4 22.8-1.6 6.7 5.8 7.4 16 1.6 22.8L371.1 295.5a16.1 16.1 0 1 1-24.4-21.1zM206.2 68.3l37.9-43.6c5.8-6.7 16-7.4 22.8-1.6 6.7 5.8 7.4 16 1.6 22.8l-37.9 43.6c-5.8 6.7-16 7.4-22.8 1.6a16.3 16.3 0 0 1-1.6-22.8zM48.7 268.8l51.1-58.7c5.8-6.7 16-7.4 22.8-1.6 6.7 5.8 7.4 16 1.6 22.8L73 290c-5.8 6.7-16 7.4-22.8 1.6a16.2 16.2 0 0 1-1.5-22.8zM74.2 102l51.1-58.7c5.8-6.7 16-7.4 22.8-1.6 6.7 5.8 7.4 16 1.6 22.8l-51.1 58.7c-5.8 6.7-16 7.4-22.8 1.6a16 16 0 0 1-1.6-22.8zM154.5 298.9l10.8-12.4c5.8-6.7 16-7.4 22.8-1.6 6.7 5.8 7.4 16 1.6 22.8L178.8 320c-5.8 6.7-16 7.4-22.8 1.6-6.6-5.8-7.3-16-1.5-22.7zM6 192.9l13.2-15.1c5.8-6.7 16-7.4 22.8-1.6 6.7 5.8 7.4 16 1.6 22.8l-13.2 15.1c-5.8 6.7-16 7.4-22.8 1.6A16 16 0 0 1 6 192.9zM334.7 116.4l51.1-58.7c5.8-6.7 16-7.4 22.8-1.6 6.7 5.8 7.4 16 1.6 22.8L359 137.5c-5.8 6.7-16 7.4-22.8 1.6-6.6-5.8-7.3-16-1.5-22.7zM344.8 19.3l9.4-10.8c5.8-6.7 16-7.4 22.8-1.6 6.7 5.8 7.4 16 1.6 22.8l-9.4 10.8c-5.8 6.7-16 7.4-22.8 1.6a16 16 0 0 1-1.6-22.8z"/><path class="st1" d="M53.2 94.2L172.7 56a13.1 13.1 0 0 1 16.5 8.5l51.5 160.9a13.1 13.1 0 0 1-8.5 16.5l-119.6 38.2a13.1 13.1 0 0 1-16.5-8.5L44.7 110.7a13.1 13.1 0 0 1 8.5-16.5z"/><path class="st2" d="M87.6 136.4l81.5-26.1M92.1 150.4l81.5-26.1"/><path fill="none" stroke="#bce8fc" stroke-width="4.9" stroke-linecap="round" stroke-linejoin="round" d="M83.2 122.3l25.4-8.1"/><path class="st1" d="M376.3 280.2L256.7 242a13.1 13.1 0 0 1-8.5-16.5l51.5-160.9a13.1 13.1 0 0 1 16.5-8.5l119.6 38.2a13.1 13.1 0 0 1 8.5 16.5l-51.5 160.9a13.1 13.1 0 0 1-16.5 8.5z"/><circle class="st4" cx="23.3" cy="170.7" r="5"/><circle class="st4" cx="450" cy="228.4" r="5"/><path class="st4" d="M467.3 102.8l9.9 9.9M467.3 112.7l9.9-9.9M133 33.4l9.9 9.9M133 43.3l9.9-9.9"/><path transform="rotate(-45 296.1 310)" class="st4" d="M291 304.8h10.3v10.3H291z"/><path transform="rotate(-45 68 264.8)" class="st4" d="M62.8 259.7h10.3V270H62.8z"/><path transform="rotate(-45 316.5 30)" class="st4" d="M311.4 24.9h10.3v10.3h-10.3z"/><path d="M205 46.3l-55.3 54.8 52.7 1.7 2.6-56.5z" fill="#fff"/><path fill="none" stroke="silver" stroke-width="3.5" stroke-miterlimit="10" d="M149.7 100.2L205 45.4"/><path class="st0" d="M151.5 101.9h29.8l-29.8 34.2v-34.2z"/><path d="M357.7 125.6l26.7-12.2a6622 6622 0 0 1 13.7 41.2L331 129.4l21.4-12.2 5.3 8.4z" fill="silver" stroke="silver" stroke-width="2.9" stroke-linecap="round" stroke-linejoin="round"/><path d="M355.3 96.1a7.6 7.6 0 1 0 0 15.2c4.2 0 7.6-3.4 7.6-7.6a7.5 7.5 0 0 0-7.6-7.6z" fill="silver" stroke="silver" stroke-linecap="round" stroke-linejoin="round"/><path d="M324.9 45.4H205v34c0 11.5-9.3 20.8-20.8 20.8h-34.4v175.3c0 7.9 6.4 14.3 14.2 14.3h160.9c7.9 0 14.3-6.4 14.3-14.2v-216c0-7.8-6.4-14.2-14.3-14.2z" fill="#fff" stroke="silver" stroke-width="3.5" stroke-linecap="round" stroke-linejoin="round"/><path class="st0" d="M152 102h29.8L152 136.2V102z"/></g></g><path d="M261 187v-41a17.2 17.2 0 0 0-15-14 17.2 17.2 0 0 0-18 14v58c1.8 5.2 6.6 8.8 12 9 5.8.2 11.1-3.4 13-9v-44a7.7 7.7 0 0 0-7-6 7.8 7.8 0 0 0-8 6v28" fill="none" stroke="#bce8fc" stroke-width="6" stroke-linecap="round" stroke-linejoin="round"/></g></svg>