<svg style="background-color:#ffffff00" xmlns="http://www.w3.org/2000/svg" width="484" height="322"><path d="M16.3 167.7c0-2.7615 2.2385-5 5-5s5 2.2385 5 5-2.2385 5-5 5-5-2.2385-5-5zM443 225.4c0-2.7615 2.2385-5 5-5s5 2.2385 5 5-2.2385 5-5 5-5-2.2385-5-5zM131 40.3l9.9-9.9m-9.9 0l9.9 9.9m324.4 69.4l9.9-9.9m-9.9 0l9.9 9.9M289 301.8h10.3v10.3H289v-10.3zM60.8 256.6h10.3v10.3H60.8v-10.3z" fill="none"/><path d="M342.8 16.3l9.4-10.8c5.8-6.7 16-7.4 22.8-1.6 6.7 5.8 7.4 16 1.6 22.8l-9.4 10.8c-5.8 6.7-16 7.4-22.8 1.6-6.8258-5.81-7.5475-16.0936-1.6-22.8zm-10.1 97.1l51.1-58.7c5.8-6.7 16-7.4 22.8-1.6 6.7 5.8 7.4 16 1.6 22.8L357 134.5c-5.8 6.7-16 7.4-22.8 1.6-6.6-5.8-7.3-16-1.5-22.7zM4 189.9l13.2-15.1c5.8-6.7 16-7.4 22.8-1.6 6.7 5.8 7.4 16 1.6 22.8l-13.2 15.1c-5.8 6.7-16 7.4-22.8 1.6-6.8258-5.81-7.5475-16.0936-1.6-22.8zm148.5 106l10.8-12.4c5.8-6.7 16-7.4 22.8-1.6 6.7 5.8 7.4 16 1.6 22.8L176.8 317c-5.8 6.7-16 7.4-22.8 1.6-6.6-5.8-7.3-16-1.5-22.7zM72.2 99l51.1-58.7c5.8-6.7 16-7.4 22.8-1.6 6.7 5.8 7.4 16 1.6 22.8l-51.1 58.7c-5.8 6.7-16 7.4-22.8 1.6-6.8258-5.81-7.5475-16.0936-1.6-22.8zM46.7 265.8l51.1-58.7c5.8-6.7 16-7.4 22.8-1.6 6.7 5.8 7.4 16 1.6 22.8L71 287c-5.8 6.7-16 7.4-22.8 1.6-6.6873-5.8932-7.3575-16.0815-1.5-22.8zM204.2 65.3l37.9-43.6c5.8-6.7 16-7.4 22.8-1.6 6.7 5.8 7.4 16 1.6 22.8l-37.9 43.6c-5.8 6.7-16 7.4-22.8 1.6-6.6649-5.8904-7.3769-16.0365-1.6-22.8zm140.5 206.1l111.9-128.6c5.8-6.7 16-7.4 22.8-1.6 6.7 5.8 7.4 16 1.6 22.8L369.1 292.5c-8.1214 9.3916-23.3639 6.4696-27.4366-5.2595-1.8901-5.4435-.7326-11.4819 3.0366-15.8405zm-90.6 20.5L366 163.3c5.8-6.7 16-7.4 22.8-1.6 6.7 5.8 7.4 16 1.6 22.8L278.4 313c-5.8 6.7-16 7.4-22.8 1.6-6.7293-5.8311-7.4036-16.0341-1.5-22.7z" fill="#edf9fe"/><path d="M256.9999 179.3494c-.0064-1.1997-.4569-2.3641-1.3084-3.175l-22.9971-22.8472c-.844-.8383-2.0035-1.3272-3.1982-1.3272s-2.3191.4887-3.1631 1.3272l-2.6394 2.6216c-.845.8043-1.339 1.9593-1.3409 3.1493-.0018 1.1911.4893 2.3474 1.3332 3.1538l10.3243 10.329-24.8376.0001c-2.5403 0-4.1383 2.1132-4.1503 4.5105l-.0223 4.5183c-.012 2.4039 1.5693 4.5267 4.1165 4.5267l24.9047.0001-10.3781 10.3924c-.852.8532-1.3501 2.0268-1.3519 3.2366-.0018 1.2101.4932 2.3854 1.3439 3.2404l2.6602 2.674c.8518.8206 1.9883 1.3201 3.196 1.32 1.2078 0 2.3799-.4994 3.2319-1.32l23.0009-23.1162c.8438-.8481 1.2822-2.0138 1.2757-3.2144z" fill="#bce8fc"/><path d="M309.4 21.9h10.3v10.3h-10.3V21.9z" fill="none"/><path d="M94.6218 71.7586L48 117.9485l44.4298 1.4328 2.192-47.6227z" fill="#fff"/><path d="M195.7058 71H94.6218v28.6579c0 9.6932-7.8406 17.532-17.5359 17.532H48.0843v147.7569C48.0843 271.6056 53.48 277 60.0559 277h135.6499c6.6603 0 12.0559-5.3944 12.0559-11.9689V82.9689c0-6.5745-5.3956-11.9689-12.0559-11.9689z" stroke="silver" stroke-width="3" fill="#fff"/><path d="M48 117.1899L94.6218 71" stroke="silver" stroke-width="3" fill="none"/><path d="M49.5175 118.6228H74.641l-25.1235 28.8265v-28.8265z" fill="#f2f2f2"/><path d="M75.4 148.9h107m-107-18.5h107M75.4 185.9h107m-107-18.5h107M75.4 221.9h107m-107-18.5h107M75.4 240.4h107" stroke="silver" stroke-width="5"/><g><path d="M312.86 71.7586l-46.6217 46.1899 44.4297 1.4328 2.192-47.6227z" fill="#fff"/><path d="M413.9441 71H312.86v28.6579c0 9.6932-7.8405 17.532-17.5358 17.532h-29.0016v147.7569c0 6.6588 5.3956 12.0532 11.9716 12.0532h135.6499C420.6043 277 426 271.6056 426 265.0311V82.9689C426 76.3944 420.6043 71 413.9441 71z" stroke="silver" stroke-width="3" fill="#fff"/><path d="M266.2383 117.1899L312.86 71" stroke="silver" stroke-width="3" fill="none"/><path d="M267.7558 118.6228h25.1234l-25.1234 28.8265v-28.8265z" fill="#f2f2f2"/></g><path d="M293.4 148.9h107m-107-18.5h107M293.4 185.9h107m-107-18.5h107" stroke="#eee" stroke-width="5"/></svg>