<svg xmlns="http://www.w3.org/2000/svg" viewBox="0 0 349 220"><defs><style>.cls-3{fill:#fff}.cls-2{stroke:#7faadc;stroke-linecap:round;stroke-linejoin:round}.cls-2,.cls-3,.cls-5{stroke-width:3px}.cls-2,.cls-4{fill:#ecf7fb}.cls-3,.cls-5{stroke:#a7c4e7;stroke-miterlimit:10}.cls-5{fill:none}</style></defs><g id="Camada_2" data-name="Camada 2"><g id="Camada_1-2" data-name="Camada 1"><g id="Camada_2-2" data-name="Camada 2"><g id="Camada_1-2-2" data-name="Camada 1-2"><circle cx="293" cy="119" r="32" stroke-width="3" stroke-linecap="round" stroke-linejoin="round" stroke="#7faadc" fill="#fff"/><path class="cls-2" d="M330 110c-1-2-3-14-13-21-11-8-26-8-38 0a22 22 0 0 0-14 4 23 23 0 0 0-9 15 23 23 0 0 0 14 0 23 23 0 0 0 9-6 53 53 0 0 0 51 8z"/><path class="cls-3" d="M347 180a21 21 0 0 0-5-7c-2-3-17-14-49-14h-1c-32 0-47 11-49 14a20 20 0 0 0-4 7 17 17 0 0 0-1 5v33h109v-33a17 17 0 0 0 0-5z"/><path class="cls-4" d="M347 180a29 29 0 0 0-5-7c-3-4-9-9-27-12-12-3-27-5-46 0a90 90 0 0 0-26 12c4-2 54-21 88 6a66 66 0 0 1 16 21v-20z"/><path class="cls-5" d="M347 180a21 21 0 0 0-5-7c-2-3-17-14-49-14h-1c-32 0-47 11-49 14a20 20 0 0 0-4 7 17 17 0 0 0-1 5v33h109v-33a17 17 0 0 0 0-5z"/><circle cx="58" cy="117" r="32" stroke-miterlimit="10" stroke-width="3" stroke="#7faadc" fill="#fff"/><path class="cls-2" d="M73 97a38 38 0 0 0 16 14c-3-15-17-26-32-26-13 0-25 9-29 23 3-2 7-4 13-4s8 4 13 5c4 0 10-1 19-12z"/><path class="cls-3" d="M110 180a20 20 0 0 0-4-7c-3-3-17-14-49-14h-1c-32 0-47 11-49 14a20 20 0 0 0-5 7 17 17 0 0 0 0 5v33h109v-33a17 17 0 0 0-1-5z"/><path class="cls-4" d="M110 180a29 29 0 0 0-4-7c-3-4-9-9-27-12-13-3-27-5-46 0a90 90 0 0 0-26 12c4-2 53-21 87 6a66 66 0 0 1 17 21l-1-20z"/><path class="cls-5" d="M110 180a20 20 0 0 0-4-7c-3-3-17-14-49-14h-1c-32 0-47 11-49 14a20 20 0 0 0-5 7 17 17 0 0 0 0 5v33h109v-33a17 17 0 0 0-1-5z"/><path d="M261 156a33 33 0 0 0-7-11c-4-4-27-22-79-23h-1c-52 1-75 19-79 23a33 33 0 0 0-7 11 27 27 0 0 0-1 8v54h175v-54a27 27 0 0 0-1-8z" stroke-width="4" stroke-miterlimit="10" stroke="#a7c4e7" fill="#fff"/><circle cx="174" cy="62" r="46" stroke-width="4" stroke-miterlimit="10" stroke="#7faadc" fill="#fff"/><path d="M230 95c-5-10 2-18 2-33 0-2 0-21-12-37a60 60 0 0 0-42-23 58 58 0 0 0-60 54c-1 16 7 24 2 35-3 7-10 11-15 13a26 26 0 0 0 45-3 44 44 0 0 1-21-45 84 84 0 0 0 37-17 83 83 0 0 0 19-21 54 54 0 0 0 35 42 48 48 0 0 1-19 40 23 23 0 0 0 43 4c-5-1-11-4-14-9z" stroke-width="4" fill="#ecf7fb" stroke-linecap="round" stroke-linejoin="round" stroke="#7faadc"/><path class="cls-4" d="M261 157a46 46 0 0 0-7-11c-5-6-15-14-43-19-20-4-44-8-74 0a144 144 0 0 0-42 19c7-3 86-33 140 11a105 105 0 0 1 27 33l-1-33z"/><path d="M261 156a33 33 0 0 0-7-11c-4-4-27-22-79-23h-1c-52 1-75 19-79 23a33 33 0 0 0-7 11 27 27 0 0 0-1 8v54h175v-54a27 27 0 0 0-1-8z" stroke-width="4" fill="none" stroke-miterlimit="10" stroke="#a7c4e7"/></g></g></g></g></svg>